<?xml version="1.0" encoding="utf-8"?>
<!-- Generator: Adobe Illustrator 28.1.0, SVG Export Plug-In . SVG Version: 6.00 Build 0)  -->
<svg version="1.1" id="Layer_1" xmlns="http://www.w3.org/2000/svg" xmlns:xlink="http://www.w3.org/1999/xlink" x="0px" y="0px"
	 viewBox="0 0 146.5 153.5" style="enable-background:new 0 0 146.5 153.5;" xml:space="preserve">
<style type="text/css">
	.st0{fill:#04043A;}
	.st1{fill:#E59900;}
	.st2{fill:#00BDD1;}
	.st3{fill:#E55A15;}
	.st4{fill:#892A0C;}
	.st5{fill:#E2173A;}
	.st6{fill:#8E631C;}
	.st7{fill:#ED247F;}
	.st8{fill:#6B1CB7;}
	.st9{fill:#5F00F4;}
	.st10{fill:#F1C911;}
	.st11{fill:#5B93B2;}
	.st12{fill:#239696;}
</style>
<g>
	<g>
		<g>
			<path class="st0" d="M39.6,128.6l-5.9-5.9c-0.3-0.3-0.8-0.5-1.2-0.5h-23c-0.5,0-0.9,0.2-1.2,0.5l-5.9,5.9
				c-0.3,0.3-0.5,0.8-0.5,1.2v16c0,0.5,0.2,0.9,0.5,1.2l5.9,5.9c0.3,0.3,0.8,0.5,1.2,0.5h23c0.5,0,0.9-0.2,1.2-0.5l5.9-5.9
				c0.3-0.3,0.5-0.8,0.5-1.2v-16C40.1,129.3,39.9,128.9,39.6,128.6z M33.2,127.3c1,0,1.7,0.8,1.7,1.7v17.4c0,1-0.8,1.7-1.7,1.7H8.7
				c-1,0-1.7-0.8-1.7-1.7v-17.4c0-1,0.8-1.7,1.7-1.7H33.2z"/>
		</g>
		<g>
			<path class="st0" d="M52.3,136.1v-7c0-1,0.8-1.7,1.7-1.7h29.7l-4.7-4.7c-0.3-0.3-0.8-0.5-1.2-0.5h-23c-0.5,0-0.9,0.2-1.2,0.5
				l-5.9,5.9c-0.3,0.3-0.5,0.8-0.5,1.2v23.7h5.2v-8.7c0-1,0.8-1.7,1.7-1.7l16.7,0c0.5,0,0.9-0.2,1.2-0.5l4.7-4.7H54.1
				C53.1,137.8,52.3,137,52.3,136.1z"/>
		</g>
		<g>
			<g>
				<path class="st0" d="M132.1,139l-3-3v-6.2c0-0.5-0.2-0.9-0.5-1.2l-5.9-5.9c-0.3-0.3-0.8-0.5-1.2-0.5h-19.5
					c-0.5,0-0.9,0.2-1.2,0.5l-5.9,5.9c-0.3,0.3-0.5,0.8-0.5,1.2v16c0,0.5,0.2,0.9,0.5,1.2l5.9,5.9c0.3,0.3,0.8,0.5,1.2,0.5l23,0
					c0.5,0,0.9-0.2,1.2-0.5l5.9-5.9c0.3-0.3,0.5-0.8,0.5-1.2v-5.5C132.6,139.8,132.4,139.3,132.1,139z M127.4,146.5
					c0,1-0.8,1.7-1.7,1.7l0,0h-24.4l0,0c-1,0-1.7-0.8-1.7-1.7v-4.4c0-1,0.8-1.7,1.7-1.7l0,0h24.4l0,0c1,0,1.7,0.8,1.7,1.7l0,0
					L127.4,146.5L127.4,146.5z M123.9,133.4c0,1-0.8,1.7-1.7,1.7h-21c-1,0-1.7-0.8-1.7-1.7V129c0-1,0.8-1.7,1.7-1.7l0,0h20.9l0,0
					c1,0,1.7,0.8,1.7,1.7l0,0L123.9,133.4L123.9,133.4z"/>
			</g>
			<g>
				<path class="st0" d="M139.6,115.1v2.8c0,0.5,0.2,0.9,0.5,1.2l1.2,1.2c1,1,1,2.5,0,3.5l-1.2,1.2c-0.3,0.3-0.5,0.8-0.5,1.2v27.2
					h5.2v-38.4H139.6z"/>
			</g>
		</g>
	</g>
	<g>
		<g>
			<g>
				<g>
					<polygon class="st10" points="146.5,31.4 146.5,45.4 115.1,14 115.1,0 					"/>
					<polygon class="st10" points="146.5,45.4 146.5,59.3 115.1,90.7 115.1,76.8 					"/>
				</g>
				<g>
					<polygon class="st10" points="0,59.3 0,45.4 31.4,76.8 31.4,90.7 					"/>
					<polygon class="st10" points="0,45.4 0,31.4 31.4,0 31.4,14 					"/>
				</g>
			</g>
		</g>
		<path class="st0" d="M76.7,3.5L38.4,41.9v14l31.4,31.4l38.4-38.4v-14L76.7,3.5z M59.3,34.9l8.7,8.7l-14,14l-8.7-8.7L59.3,34.9z
			 M69.8,73.3L61,64.5l14-14l8.7,8.7L69.8,73.3z M90.7,52.3L66.3,27.9l10.5-10.5l24.4,24.4L90.7,52.3z"/>
	</g>
</g>
</svg>
