<?xml version="1.0" encoding="utf-8"?>
<!-- Generator: Adobe Illustrator 28.1.0, SVG Export Plug-In . SVG Version: 6.00 Build 0)  -->
<svg version="1.1" id="Layer_1" xmlns="http://www.w3.org/2000/svg" xmlns:xlink="http://www.w3.org/1999/xlink" x="0px" y="0px"
	 viewBox="0 0 219.5 153.5" style="enable-background:new 0 0 219.5 153.5;" xml:space="preserve">
<style type="text/css">
	.st0{fill:#04043A;}
	.st1{fill:#E59900;}
	.st2{fill:#00BDD1;}
	.st3{fill:#E55A15;}
	.st4{fill:#892A0C;}
	.st5{fill:#E2173A;}
	.st6{fill:#8E631C;}
	.st7{fill:#ED247F;}
	.st8{fill:#6B1CB7;}
	.st9{fill:#5F00F4;}
	.st10{fill:#F1C911;}
	.st11{fill:#5B93B2;}
	.st12{fill:#239696;}
</style>
<g>
	<g>
		<g>
			<g>
				<path class="st0" d="M130.8,132.6v-2.8c0-0.5-0.2-0.9-0.5-1.2l-6-6c-0.3-0.3-0.8-0.5-1.2-0.5h-23c-0.5,0-0.9,0.2-1.2,0.5l-6,6
					c-0.3,0.3-0.5,0.8-0.5,1.2v16c0,0.5,0.2,0.9,0.5,1.2l6,6c0.3,0.3,0.8,0.5,1.2,0.5h23c0.5,0,0.9-0.2,1.2-0.5l6-6
					c0.3-0.3,0.5-0.8,0.5-1.2V143l-5.2,0l0,3.5c0,1-0.8,1.7-1.7,1.7H99.4c-1,0-1.7-0.8-1.7-1.7v-17.4c0-0.9,0.8-1.7,1.7-1.7h24.5
					c0.9,0,1.7,0.8,1.7,1.7v3.5L130.8,132.6z"/>
			</g>
			<g>
				<path class="st0" d="M175.7,132.1l-9.4-9.4c-0.3-0.3-0.8-0.5-1.2-0.5h-19.5c-0.5,0-0.9,0.2-1.2,0.5l-5.9,5.9
					c-0.3,0.3-0.5,0.8-0.5,1.2v16c0,0.5,0.2,0.9,0.5,1.2l5.9,5.9c0.3,0.3,0.8,0.5,1.2,0.5H165c0.5,0,0.9-0.2,1.2-0.5l9.4-9.4
					c0.3-0.3,0.5-0.8,0.5-1.2l0-9C176.2,132.8,176,132.4,175.7,132.1z M144.8,148.3c-1,0-1.7-0.8-1.7-1.7v-17.4c0-1,0.8-1.7,1.7-1.7
					h17.7c0.5,0,0.9,0.2,1.2,0.5l6.7,6.7c0.3,0.3,0.5,0.8,0.5,1.2v4.8c0,0.5-0.2,0.9-0.5,1.2l-5.9,5.9c-0.3,0.3-0.8,0.5-1.2,0.5
					L144.8,148.3z"/>
			</g>
			<g>
				<path class="st0" d="M189.8,148.3c-1,0-1.7-0.8-1.7-1.7v-4.4c0-1,0.8-1.7,1.7-1.7l0,0h16.7c0.5,0,0.9-0.2,1.2-0.5l4.7-4.7h-22.7
					c-1,0-1.7-0.8-1.7-1.7v-4.4c0-1,0.8-1.7,1.7-1.7h29.7l-4.7-4.7c-0.3-0.3-0.8-0.5-1.2-0.5h-23c-0.5,0-0.9,0.2-1.2,0.5l-5.9,5.9
					c-0.3,0.3-0.5,0.8-0.5,1.2v16c0,0.5,0.2,0.9,0.5,1.2l5.9,5.9c0.3,0.3,0.8,0.5,1.2,0.5h23c0.5,0,0.9-0.2,1.2-0.5l4.7-4.7
					L189.8,148.3L189.8,148.3z"/>
			</g>
		</g>
		<g>
			<path class="st0" d="M37.9,128.6l-5.9-5.9c-0.3-0.3-0.8-0.5-1.2-0.5h-23c-0.5,0-0.9,0.2-1.2,0.5l-5.9,5.9
				c-0.3,0.3-0.5,0.8-0.5,1.2v16c0,0.5,0.2,0.9,0.5,1.2l5.9,5.9c0.3,0.3,0.8,0.5,1.2,0.5h23c0.5,0,0.9-0.2,1.2-0.5l5.9-5.9
				c0.3-0.3,0.5-0.8,0.5-1.2v-16C38.4,129.4,38.2,128.9,37.9,128.6z M31.4,127.4c1,0,1.7,0.8,1.7,1.7v17.4c0,1-0.8,1.7-1.7,1.7H7
				c-1,0-1.7-0.8-1.7-1.7v-17.4c0-1,0.8-1.7,1.7-1.7H31.4z"/>
		</g>
		<g>
			<path class="st0" d="M50.6,136.1v-7c0-1,0.8-1.7,1.7-1.7H82l-4.7-4.7c-0.3-0.3-0.8-0.5-1.2-0.5h-23c-0.5,0-0.9,0.2-1.2,0.5
				l-5.9,5.9c-0.3,0.3-0.5,0.8-0.5,1.2v23.7h5.2v-8.7c0-1,0.8-1.7,1.7-1.7l16.7,0c0.5,0,0.9-0.2,1.2-0.5l4.7-4.7H52.3
				C51.4,137.8,50.6,137.1,50.6,136.1z"/>
		</g>
	</g>
	<g>
		<g>
			<g>
				<polygon class="st12" points="183,31.4 183,45.4 151.6,14 151.6,0 				"/>
				<polygon class="st12" points="183,45.4 183,59.3 151.6,90.7 151.6,76.8 				"/>
			</g>
			<g>
				<polygon class="st12" points="36.5,59.3 36.5,45.4 67.9,76.8 67.9,90.7 				"/>
				<polygon class="st12" points="36.5,45.4 36.5,31.4 67.9,0 67.9,14 				"/>
			</g>
		</g>
		<g>
			<polygon class="st0" points="88.8,45.4 88.8,24.4 99.3,24.4 109.7,14 78.3,14 78.3,34.9 			"/>
			<polygon class="st0" points="120.2,14 109.7,24.4 130.7,24.4 130.7,34.9 141.1,45.4 141.1,14 			"/>
			<polygon class="st0" points="130.7,45.4 130.7,66.3 120.2,66.3 109.7,76.8 141.1,76.8 141.1,55.8 			"/>
			<polygon class="st0" points="88.8,55.8 78.3,45.4 78.3,76.8 99.3,76.8 109.7,66.3 88.8,66.3 			"/>
			<rect x="99.3" y="34.9" class="st0" width="20.9" height="20.9"/>
		</g>
	</g>
</g>
</svg>
