<?xml version="1.0" encoding="utf-8"?>
<!-- Generator: Adobe Illustrator 28.1.0, SVG Export Plug-In . SVG Version: 6.00 Build 0)  -->
<svg version="1.1" id="Layer_1" xmlns="http://www.w3.org/2000/svg" xmlns:xlink="http://www.w3.org/1999/xlink" x="0px" y="0px"
	 viewBox="0 0 464 153.5" style="enable-background:new 0 0 464 153.5;" xml:space="preserve">
<style type="text/css">
	.st0{fill:#04043A;}
	.st1{fill:#E59900;}
	.st2{fill:#00BDD1;}
	.st3{fill:#E55A15;}
	.st4{fill:#892A0C;}
	.st5{fill:#E2173A;}
	.st6{fill:#8E631C;}
	.st7{fill:#ED247F;}
	.st8{fill:#6B1CB7;}
	.st9{fill:#5F00F4;}
	.st10{fill:#F1C911;}
	.st11{fill:#5B93B2;}
	.st12{fill:#239696;}
</style>
<g>
	<g>
		<g>
			<path class="st0" d="M319.2,122.1v24.4c0,1-0.8,1.7-1.7,1.7H293c-1,0-1.7-0.8-1.7-1.7v-24.4l-5.2,0v23.7c0,0.5,0.2,0.9,0.5,1.2
				l5.9,5.9c0.3,0.3,0.8,0.5,1.2,0.5h23c0.5,0,0.9-0.2,1.2-0.5l5.9-5.9c0.3-0.3,0.5-0.8,0.5-1.2v-23.7L319.2,122.1z"/>
		</g>
		<g>
			<path class="st0" d="M278.5,128.6l-5.9-5.9c-0.3-0.3-0.8-0.5-1.2-0.5h-13.2l4.8-1.6c0.3-0.1,0.5-0.2,0.7-0.4l4.9-4.9l-4.8,1.6
				c-0.3,0.1-0.5,0.2-0.7,0.4l-3.2,3.2l0,0c-1,1-2.4,1.6-3.8,1.7h-7.7c-0.5,0-0.9,0.2-1.2,0.5l-5.9,5.9c-0.3,0.3-0.5,0.8-0.5,1.2
				v23.7h5.2V143h23.7c0.5,0,0.9-0.2,1.2-0.5l1.7-1.7c0.5-0.4,1.2-0.1,1.2,0.5l0,0v12.2h5.2v-23.7
				C279.1,129.3,278.9,128.9,278.5,128.6z M273.8,137.8h-23.7c-0.5,0-0.9,0.2-1.2,0.5l-1.7,1.7c-0.5,0.5-1.2,0.1-1.2-0.5v-10.5
				c0-1,0.8-1.7,1.7-1.7h24.4c1,0,1.7,0.8,1.7,1.7V137.8z"/>
		</g>
		<g>
			<path class="st0" d="M338.4,148.3c-1,0-1.7-0.8-1.7-1.7v-24.4h-5.2v23.7c0,0.5,0.2,0.9,0.5,1.2l5.9,5.9c0.3,0.3,0.8,0.5,1.2,0.5
				l19.5,0c0.5,0,0.9-0.2,1.2-0.5l4.7-4.7H338.4z"/>
		</g>
		<g>
			<path class="st0" d="M37.9,128.6l-5.9-5.9c-0.3-0.3-0.8-0.5-1.2-0.5h-23c-0.5,0-0.9,0.2-1.2,0.5l-5.9,5.9
				c-0.3,0.3-0.5,0.8-0.5,1.2v16c0,0.5,0.2,0.9,0.5,1.2l5.9,5.9c0.3,0.3,0.8,0.5,1.2,0.5h23c0.5,0,0.9-0.2,1.2-0.5l5.9-5.9
				c0.3-0.3,0.5-0.8,0.5-1.2v-16C38.4,129.4,38.2,128.9,37.9,128.6z M31.4,127.4c1,0,1.7,0.8,1.7,1.7v17.4c0,1-0.8,1.7-1.7,1.7H7
				c-1,0-1.7-0.8-1.7-1.7v-17.4c0-1,0.8-1.7,1.7-1.7H31.4z"/>
		</g>
		<g>
			<path class="st0" d="M463.5,128.6l-5.9-5.9c-0.3-0.3-0.8-0.5-1.2-0.5h-23c-0.5,0-0.9,0.2-1.2,0.5l-5.9,5.9
				c-0.3,0.3-0.5,0.8-0.5,1.2v16c0,0.5,0.2,0.9,0.5,1.2l5.9,5.9c0.3,0.3,0.8,0.5,1.2,0.5h23c0.5,0,0.9-0.2,1.2-0.5l5.9-5.9
				c0.3-0.3,0.5-0.8,0.5-1.2v-16C464,129.4,463.8,128.9,463.5,128.6z M457,127.4c1,0,1.7,0.8,1.7,1.7v17.4c0,1-0.8,1.7-1.7,1.7
				h-24.4c-1,0-1.7-0.8-1.7-1.7v-17.4c0-1,0.8-1.7,1.7-1.7H457z"/>
		</g>
		<g>
			<g>
				<polygon class="st0" points="225,144.8 224.5,144.3 224.5,144.3 				"/>
				<path class="st0" d="M225,143.1h1c0.5,0,0.9-0.2,1.2-0.5l5.9-5.9c0.3-0.3,0.5-0.8,0.5-1.2v-5.5c0-0.5-0.2-0.9-0.5-1.2l-5.9-5.9
					c-0.3-0.3-0.8-0.5-1.2-0.5h-23c-0.5,0-0.9,0.2-1.2,0.5l-5.9,5.9c-0.3,0.3-0.5,0.8-0.5,1.2v23.7h5.2v-8.7c0-1,0.8-1.7,1.7-1.7
					l12.2,0c1.1,0,2.2,0.4,2.9,1.2l9.2,9.2h7l-9.2-9.2l0,0C224,143.9,224.4,143.1,225,143.1z M228.5,136.1c0,1-0.8,1.7-1.7,1.7
					h-24.4c-1,0-1.7-0.8-1.7-1.7v-7c0-1,0.8-1.7,1.7-1.7h24.4c1,0,1.7,0.8,1.7,1.7V136.1z"/>
			</g>
		</g>
		<g>
			<path class="st0" d="M418.6,132.6v-2.8c0-0.5-0.2-0.9-0.5-1.2l-6-6c-0.3-0.3-0.8-0.5-1.2-0.5h-23c-0.5,0-0.9,0.2-1.2,0.5l-6,6
				c-0.3,0.3-0.5,0.8-0.5,1.2v16c0,0.5,0.2,0.9,0.5,1.2l6,6c0.3,0.3,0.8,0.5,1.2,0.5h23c0.5,0,0.9-0.2,1.2-0.5l6-6
				c0.3-0.3,0.5-0.8,0.5-1.2v-2.8l-5.2,0l0,3.5c0,1-0.8,1.7-1.7,1.7h-24.4c-1,0-1.7-0.8-1.7-1.7v-17.4c0-0.9,0.8-1.7,1.7-1.7h24.5
				c0.9,0,1.7,0.8,1.7,1.7v3.5L418.6,132.6z"/>
		</g>
		<g>
			<path class="st0" d="M187.9,132.1l-9.4-9.4c-0.3-0.3-0.8-0.5-1.2-0.5h-19.5c-0.5,0-0.9,0.2-1.2,0.5l-5.9,5.9
				c-0.3,0.3-0.5,0.8-0.5,1.2v16c0,0.5,0.2,0.9,0.5,1.2l5.9,5.9c0.3,0.3,0.8,0.5,1.2,0.5h19.5c0.5,0,0.9-0.2,1.2-0.5l9.4-9.4
				c0.3-0.3,0.5-0.8,0.5-1.2l0-9C188.4,132.9,188.2,132.4,187.9,132.1z M157,148.3c-1,0-1.7-0.8-1.7-1.7v-17.4c0-1,0.8-1.7,1.7-1.7
				h17.7c0.5,0,0.9,0.2,1.2,0.5l6.7,6.7c0.3,0.3,0.5,0.8,0.5,1.2v4.8c0,0.5-0.2,0.9-0.5,1.2l-5.9,5.9c-0.3,0.3-0.8,0.5-1.2,0.5
				L157,148.3z"/>
		</g>
		<g>
			<path class="st0" d="M125.6,122.1v14l-23.7,0c-0.5,0-0.9,0.2-1.2,0.5l-1.7,1.7c-0.5,0.5-1.2,0.1-1.2-0.5l0-15.7h-5.2v31.4h5.2
				v-12.2l23.7,0c0.5,0,0.9-0.2,1.2-0.5l1.7-1.7c0.5-0.4,1.2-0.1,1.2,0.5l0,14h5.2v-31.4H125.6z"/>
		</g>
		<g>
			<path class="st0" d="M137.8,115.2v2.8c0,0.5,0.2,0.9,0.5,1.2l1.2,1.2c1,1,1,2.5,0,3.5l-1.2,1.2c-0.3,0.3-0.5,0.8-0.5,1.2v27.2
				h5.2v-38.4H137.8z"/>
		</g>
		<g>
			<path class="st0" d="M368.1,115.2v2.8c0,0.5,0.2,0.9,0.5,1.2l1.2,1.2c1,1,1,2.5,0,3.5l-1.2,1.2c-0.3,0.3-0.5,0.8-0.5,1.2v27.2
				h5.2v-38.4H368.1z"/>
		</g>
		<g>
			<path class="st0" d="M50.6,136.1v-7c0-1,0.8-1.7,1.7-1.7H82l-4.7-4.7c-0.3-0.3-0.8-0.5-1.2-0.5h-23c-0.5,0-0.9,0.2-1.2,0.5
				l-5.9,5.9c-0.3,0.3-0.5,0.8-0.5,1.2v23.7h5.2v-8.7c0-1,0.8-1.7,1.7-1.7l16.7,0c0.5,0,0.9-0.2,1.2-0.5l4.7-4.7H52.3
				C51.4,137.8,50.6,137.1,50.6,136.1z"/>
		</g>
	</g>
	<g>
		<g>
			<polygon class="st0" points="197.3,56.5 197.3,66.9 221.5,66.9 232,56.5 			"/>
			<polygon class="st0" points="232,56.5 266.9,56.5 266.9,46 242.5,46 			"/>
			<polygon class="st0" points="232,35.5 197.3,35.5 197.3,46 221.5,46 			"/>
			<polygon class="st0" points="242.5,25.1 232,35.5 266.9,35.5 266.9,25.1 			"/>
		</g>
		<g>
			<g>
				<polygon class="st2" points="305.3,31.4 305.3,45.4 273.9,14 273.9,0 				"/>
				<polygon class="st2" points="305.3,45.4 305.3,59.3 273.9,90.7 273.9,76.8 				"/>
			</g>
			<g>
				<polygon class="st2" points="158.7,59.3 158.7,45.4 190.1,76.8 190.1,90.7 				"/>
				<polygon class="st2" points="158.7,45.4 158.7,31.4 190.1,0 190.1,14 				"/>
			</g>
		</g>
	</g>
</g>
</svg>
