<?xml version="1.0" encoding="utf-8"?>
<!-- Generator: Adobe Illustrator 28.1.0, SVG Export Plug-In . SVG Version: 6.00 Build 0)  -->
<svg version="1.1" id="Layer_1" xmlns="http://www.w3.org/2000/svg" xmlns:xlink="http://www.w3.org/1999/xlink" x="0px" y="0px"
	 viewBox="0 0 458.8 205.8" style="enable-background:new 0 0 458.8 205.8;" xml:space="preserve">
<style type="text/css">
	.st0{fill:#04043A;}
	.st1{fill:#E59900;}
	.st2{fill:#00BDD1;}
	.st3{fill:#E55A15;}
	.st4{fill:#892A0C;}
	.st5{fill:#E2173A;}
	.st6{fill:#8E631C;}
	.st7{fill:#ED247F;}
	.st8{fill:#6B1CB7;}
	.st9{fill:#5F00F4;}
	.st10{fill:#F1C911;}
	.st11{fill:#5B93B2;}
	.st12{fill:#239696;}
</style>
<g>
	<g>
		<g>
			<g>
				<polygon class="st5" points="302.7,31.4 302.7,45.4 271.3,14 271.3,0 				"/>
				<polygon class="st5" points="302.7,45.4 302.7,59.3 271.3,90.7 271.3,76.8 				"/>
			</g>
			<g>
				<polygon class="st5" points="156.1,59.3 156.1,45.4 187.5,76.8 187.5,90.7 				"/>
				<polygon class="st5" points="156.1,45.4 156.1,31.4 187.5,0 187.5,14 				"/>
			</g>
		</g>
		<g>
			<polygon class="st0" points="234.6,24.4 245.1,14 215.5,14 205.1,24.4 194.6,34.9 194.6,55.8 205.1,66.3 205.1,66.3 205.1,24.4 
							"/>
			<polygon class="st0" points="215.5,76.7 234.6,76.7 245.1,66.3 205.1,66.3 			"/>
			<polygon class="st0" points="264.3,40.1 255.5,40.1 255.5,31.4 245.1,31.4 245.1,40.1 236.3,40.1 236.3,50.6 245.1,50.6 
				245.1,59.3 255.5,59.3 255.5,50.6 264.3,50.6 			"/>
		</g>
	</g>
	<g>
		<g>
			<g>
				<g>
					<path class="st0" d="M201.5,132.6v-2.8c0-0.5-0.2-0.9-0.5-1.2l-5.9-5.9c-0.3-0.3-0.8-0.5-1.2-0.5h-23c-0.5,0-0.9,0.2-1.2,0.5
						l-5.9,5.9c-0.3,0.3-0.5,0.8-0.5,1.2v2c0,0.5,0.2,0.9,0.5,1.2l6.8,6.8c0.3,0.3,0.8,0.5,1.2,0.5l22.8,0c1,0,1.7,0.8,1.7,1.7v4.4
						c0,0.9-0.8,1.7-1.7,1.7l-24.5,0c-1,0-1.7-0.8-1.7-1.7V143l-5.2,0v2.8c0,0.5,0.2,0.9,0.5,1.2l5.9,5.9c0.3,0.3,0.8,0.5,1.2,0.5
						h23c0.5,0,0.9-0.2,1.2-0.5l5.9-5.9c0.3-0.3,0.5-0.8,0.5-1.2v-2c0-0.5-0.2-0.9-0.5-1.2l-6.8-6.8c-0.3-0.3-0.8-0.5-1.2-0.5
						l-22.8,0c-1,0-1.7-0.8-1.7-1.7v-4.4c0-1,0.8-1.7,1.7-1.7h24.4c1,0,1.7,0.8,1.7,1.7v3.5L201.5,132.6z"/>
				</g>
				<g>
					<path class="st0" d="M287,132.6v-2.8c0-0.5-0.2-0.9-0.5-1.2l-5.9-5.9c-0.3-0.3-0.8-0.5-1.2-0.5h-23c-0.5,0-0.9,0.2-1.2,0.5
						l-5.9,5.9c-0.3,0.3-0.5,0.8-0.5,1.2v2c0,0.5,0.2,0.9,0.5,1.2l6.8,6.8c0.3,0.3,0.8,0.5,1.2,0.5l22.8,0c1,0,1.7,0.8,1.7,1.7v4.4
						c0,0.9-0.8,1.7-1.7,1.7l-24.5,0c-1,0-1.7-0.8-1.7-1.7V143l-5.2,0v2.8c0,0.5,0.2,0.9,0.5,1.2l5.9,5.9c0.3,0.3,0.8,0.5,1.2,0.5
						h23c0.5,0,0.9-0.2,1.2-0.5l5.9-5.9c0.3-0.3,0.5-0.8,0.5-1.2v-2c0-0.5-0.2-0.9-0.5-1.2l-6.8-6.8c-0.3-0.3-0.8-0.5-1.2-0.5
						l-22.8,0c-1,0-1.7-0.8-1.7-1.7v-4.4c0-1,0.8-1.7,1.7-1.7H280c1,0,1.7,0.8,1.7,1.7v3.5L287,132.6z"/>
				</g>
				<g>
					<path class="st0" d="M155.6,128.6l-5.9-5.9c-0.3-0.3-0.8-0.5-1.2-0.5h-23c-0.5,0-0.9,0.2-1.2,0.5l-5.9,5.9
						c-0.3,0.3-0.5,0.8-0.5,1.2v23.7h5.2V143h23.7c0.5,0,0.9-0.2,1.2-0.5l1.7-1.7c0.5-0.4,1.2-0.1,1.2,0.5l0,0v12.2h5.2v-23.7
						C156.1,129.3,155.9,128.9,155.6,128.6z M127.2,137.8c-0.5,0-0.9,0.2-1.2,0.5l-1.7,1.7c-0.5,0.5-1.2,0.1-1.2-0.5v-10.5
						c0-1,0.8-1.7,1.7-1.7h24.4c1,0,1.7,0.8,1.7,1.7v8.7H127.2z"/>
				</g>
				<g>
					<path class="st0" d="M110.3,139l-3-3v-6.2c0-0.5-0.2-0.9-0.5-1.2l-5.9-5.9c-0.3-0.3-0.8-0.5-1.2-0.5H80.1
						c-0.5,0-0.9,0.2-1.2,0.5l-5.9,5.9c-0.3,0.3-0.5,0.8-0.5,1.2v16c0,0.5,0.2,0.9,0.5,1.2l5.9,5.9c0.3,0.3,0.8,0.5,1.2,0.5l23,0
						c0.5,0,0.9-0.2,1.2-0.5l5.9-5.9c0.3-0.3,0.5-0.8,0.5-1.2v-5.5C110.8,139.8,110.6,139.4,110.3,139z M105.5,146.5
						c0,1-0.8,1.7-1.7,1.7l0,0H79.4l0,0c-1,0-1.7-0.8-1.7-1.7v-4.4c0-1,0.8-1.7,1.7-1.7l0,0h24.4l0,0c1,0,1.7,0.8,1.7,1.7l0,0
						L105.5,146.5L105.5,146.5z M102.1,133.4c0,1-0.8,1.7-1.7,1.7h-21c-1,0-1.7-0.8-1.7-1.7v-4.4c0-1,0.8-1.7,1.7-1.7l0,0h20.9l0,0
						c1,0,1.7,0.8,1.7,1.7l0,0L102.1,133.4L102.1,133.4z"/>
				</g>
				<g>
					<path class="st0" d="M215.4,148.3c-1,0-1.7-0.8-1.7-1.7v-4.4c0-1,0.8-1.7,1.7-1.7l0,0h16.7c0.5,0,0.9-0.2,1.2-0.5l4.7-4.7
						h-22.7c-1,0-1.7-0.8-1.7-1.7v-4.4c0-1,0.8-1.7,1.7-1.7h29.7l-4.7-4.7c-0.3-0.3-0.8-0.5-1.2-0.5h-23c-0.5,0-0.9,0.2-1.2,0.5
						l-5.9,5.9c-0.3,0.3-0.5,0.8-0.5,1.2v16c0,0.5,0.2,0.9,0.5,1.2l5.9,5.9c0.3,0.3,0.8,0.5,1.2,0.5h23c0.5,0,0.9-0.2,1.2-0.5
						l4.7-4.7L215.4,148.3L215.4,148.3z"/>
				</g>
			</g>
			<g>
				<g>
					<path class="st0" d="M342.3,132.1l-9.4-9.4c-0.3-0.3-0.8-0.5-1.2-0.5h-19.5c-0.5,0-0.9,0.2-1.2,0.5l-5.9,5.9
						c-0.3,0.3-0.5,0.8-0.5,1.2v16c0,0.5,0.2,0.9,0.5,1.2l5.9,5.9c0.3,0.3,0.8,0.5,1.2,0.5h19.5c0.5,0,0.9-0.2,1.2-0.5l9.4-9.4
						c0.3-0.3,0.5-0.8,0.5-1.2l0-9C342.8,132.8,342.6,132.4,342.3,132.1z M311.4,148.3c-1,0-1.7-0.8-1.7-1.7v-17.4
						c0-1,0.8-1.7,1.7-1.7h17.7c0.5,0,0.9,0.2,1.2,0.5l6.7,6.7c0.3,0.3,0.5,0.8,0.5,1.2v4.8c0,0.5-0.2,0.9-0.5,1.2l-5.9,5.9
						c-0.3,0.3-0.8,0.5-1.2,0.5L311.4,148.3z"/>
				</g>
				<g>
					<path class="st0" d="M356.7,148.3c-1,0-1.7-0.8-1.7-1.7v-4.4c0-1,0.8-1.7,1.7-1.7l0,0h16.7c0.5,0,0.9-0.2,1.2-0.5l4.7-4.7
						h-22.7c-1,0-1.7-0.8-1.7-1.7v-4.4c0-1,0.8-1.7,1.7-1.7h29.7l-4.7-4.7c-0.3-0.3-0.8-0.5-1.2-0.5h-23c-0.5,0-0.9,0.2-1.2,0.5
						l-5.9,5.9c-0.3,0.3-0.5,0.8-0.5,1.2v16c0,0.5,0.2,0.9,0.5,1.2l5.9,5.9c0.3,0.3,0.8,0.5,1.2,0.5h23c0.5,0,0.9-0.2,1.2-0.5
						l4.7-4.7L356.7,148.3L356.7,148.3z"/>
				</g>
			</g>
		</g>
		<g>
			<g>
				<path class="st0" d="M270.4,177.9v-2.8c0-0.5-0.2-0.9-0.5-1.2l-5.9-5.9c-0.3-0.3-0.8-0.5-1.2-0.5h-23c-0.5,0-0.9,0.2-1.2,0.5
					l-5.9,5.9c-0.3,0.3-0.5,0.8-0.5,1.2v2c0,0.5,0.2,0.9,0.5,1.2l6.8,6.8c0.3,0.3,0.8,0.5,1.2,0.5l22.8,0c1,0,1.7,0.8,1.7,1.7v4.4
					c0,0.9-0.8,1.7-1.7,1.7l-24.5,0c-1,0-1.7-0.8-1.7-1.7v-3.5l-5.2,0v2.8c0,0.5,0.2,0.9,0.5,1.2l5.9,5.9c0.3,0.3,0.8,0.5,1.2,0.5
					h23c0.5,0,0.9-0.2,1.2-0.5l5.9-5.9c0.3-0.3,0.5-0.8,0.5-1.2v-2c0-0.5-0.2-0.9-0.5-1.2l-6.8-6.8c-0.3-0.3-0.8-0.5-1.2-0.5
					l-22.8,0c-1,0-1.7-0.8-1.7-1.7v-4.4c0-1,0.8-1.7,1.7-1.7h24.4c1,0,1.7,0.8,1.7,1.7v3.5L270.4,177.9z"/>
			</g>
			<g>
				<path class="st0" d="M458.8,177.9v-2.8c0-0.5-0.2-0.9-0.5-1.2l-5.9-5.9c-0.3-0.3-0.8-0.5-1.2-0.5h-23c-0.5,0-0.9,0.2-1.2,0.5
					l-5.9,5.9c-0.3,0.3-0.5,0.8-0.5,1.2v2c0,0.5,0.2,0.9,0.5,1.2l6.8,6.8c0.3,0.3,0.8,0.5,1.2,0.5l22.8,0c1,0,1.7,0.8,1.7,1.7v4.4
					c0,0.9-0.8,1.7-1.7,1.7l-24.5,0c-1,0-1.7-0.8-1.7-1.7v-3.5l-5.2,0v2.8c0,0.5,0.2,0.9,0.5,1.2l5.9,5.9c0.3,0.3,0.8,0.5,1.2,0.5
					h23c0.5,0,0.9-0.2,1.2-0.5l5.9-5.9c0.3-0.3,0.5-0.8,0.5-1.2v-2c0-0.5-0.2-0.9-0.5-1.2l-6.8-6.8c-0.3-0.3-0.8-0.5-1.2-0.5
					l-22.8,0c-1,0-1.7-0.8-1.7-1.7v-4.4c0-1,0.8-1.7,1.7-1.7h24.4c1,0,1.7,0.8,1.7,1.7v3.5L458.8,177.9z"/>
			</g>
			<g>
				<path class="st0" d="M327.9,177.9v-2.8c0-0.5-0.2-0.9-0.5-1.2l-6-6c-0.3-0.3-0.8-0.5-1.2-0.5h-23c-0.5,0-0.9,0.2-1.2,0.5l-6,6
					c-0.3,0.3-0.5,0.8-0.5,1.2v16c0,0.5,0.2,0.9,0.5,1.2l6,6c0.3,0.3,0.8,0.5,1.2,0.5h18.5l0,0c0.6,0,1,0.8,0.5,1.2l-0.6,0.6
					c-1.1,1.1-2.6,1.7-4.2,1.7h-7.3c-0.5,0-0.9,0.2-1.2,0.5l-3,3h13.2c0.5,0,0.9-0.2,1.2-0.5l2.5-2.5c0.3-0.3,0.5-0.8,0.5-1.2v-2.8
					h2.8c0.5,0,0.9-0.2,1.2-0.5l6-6c0.3-0.3,0.5-0.8,0.5-1.2v-2.8l-5.2,0l0,3.5c0,1-0.8,1.7-1.7,1.7h-24.4c-1,0-1.7-0.8-1.7-1.7
					v-17.4c0-0.9,0.8-1.7,1.7-1.7H321c0.9,0,1.7,0.8,1.7,1.7v3.5L327.9,177.9z M314,202.3L314,202.3L314,202.3L314,202.3z"/>
			</g>
			<g>
				<path class="st0" d="M133.8,170.4l-2.5-2.5c-0.3-0.3-0.8-0.5-1.2-0.5h-2.5c-0.7,0-1.3,0.4-1.6,1l-11.9,26.9v0
					c-0.6,1.3-2.5,1.3-3.1,0h0v0L99,168.5c-0.3-0.6-0.9-1-1.6-1h-2.5c-0.5,0-0.9,0.2-1.2,0.5l-2.5,2.5c-0.3,0.3-0.5,0.8-0.5,1.2
					v27.2h5.2v-22.6c0-0.2,0.2-0.2,0.3-0.1l10.2,22.6h12.2l10.2-22.6c0.1-0.1,0.3-0.1,0.3,0.1v22.6h5.2v-27.2
					C134.3,171.2,134.1,170.7,133.8,170.4z"/>
			</g>
			<g>
				<path class="st0" d="M224.5,173.9l-5.9-5.9c-0.3-0.3-0.8-0.5-1.2-0.5h-23c-0.5,0-0.9,0.2-1.2,0.5l-5.9,5.9
					c-0.3,0.3-0.5,0.8-0.5,1.2v16c0,0.5,0.2,0.9,0.5,1.2l5.9,5.9c0.3,0.3,0.8,0.5,1.2,0.5h23c0.5,0,0.9-0.2,1.2-0.5l5.9-5.9
					c0.3-0.3,0.5-0.8,0.5-1.2v-16C225,174.7,224.9,174.2,224.5,173.9z M218.1,172.7c1,0,1.7,0.8,1.7,1.7v17.4c0,1-0.8,1.7-1.7,1.7
					h-24.4c-1,0-1.7-0.8-1.7-1.7v-17.4c0-1,0.8-1.7,1.7-1.7H218.1z"/>
			</g>
			<g>
				<path class="st0" d="M83.2,173.9l-5.9-5.9c-0.3-0.3-0.8-0.5-1.2-0.5h-23c-0.5,0-0.9,0.2-1.2,0.5l-5.9,5.9
					c-0.3,0.3-0.5,0.8-0.5,1.2v16c0,0.5,0.2,0.9,0.5,1.2l5.9,5.9c0.3,0.3,0.8,0.5,1.2,0.5h23c0.5,0,0.9-0.2,1.2-0.5l5.9-5.9
					c0.3-0.3,0.5-0.8,0.5-1.2v-16C83.7,174.7,83.5,174.2,83.2,173.9z M76.8,172.7c1,0,1.7,0.8,1.7,1.7v17.4c0,1-0.8,1.7-1.7,1.7
					H52.3c-1,0-1.7-0.8-1.7-1.7v-17.4c0-1,0.8-1.7,1.7-1.7H76.8z"/>
			</g>
			<g>
				<path class="st0" d="M179.2,173.9l-5.9-5.9c-0.3-0.3-0.8-0.5-1.2-0.5h-23c-0.5,0-0.9,0.2-1.2,0.5l-5.9,5.9
					c-0.3,0.3-0.5,0.8-0.5,1.2v23.7h5.2v-7c0-1,0.8-1.7,1.7-1.7l23.7,0c0.5,0,0.9-0.2,1.2-0.5l5.9-5.9c0.3-0.3,0.5-0.8,0.5-1.2v-7.3
					C179.7,174.7,179.5,174.2,179.2,173.9z M172.8,184.9h-24.5c-1,0-1.7-0.8-1.7-1.7v-8.7c0-1,0.8-1.7,1.7-1.7h24.4
					c1,0,1.7,0.8,1.7,1.7v8.7C174.4,184.1,173.7,184.9,172.8,184.9z"/>
			</g>
			<g>
				<g>
					<path class="st0" d="M372.8,173.9l-5.9-5.9c-0.3-0.3-0.8-0.5-1.2-0.5h-23c-0.5,0-0.9,0.2-1.2,0.5l-5.9,5.9
						c-0.3,0.3-0.5,0.8-0.5,1.2v16c0,0.5,0.2,0.9,0.5,1.2l5.9,5.9c0.3,0.3,0.8,0.5,1.2,0.5h23c0.5,0,0.9-0.2,1.2-0.5l5.9-5.9
						c0.3-0.3,0.5-0.8,0.5-1.2v-16C373.3,174.7,373.1,174.2,372.8,173.9z M366.3,172.7c1,0,1.7,0.8,1.7,1.7v17.4
						c0,1-0.8,1.7-1.7,1.7h-24.4c-1,0-1.7-0.8-1.7-1.7v-17.4c0-1,0.8-1.7,1.7-1.7H366.3z"/>
					<path class="st0" d="M354.6,164.5l0.7,0.7c0.3,0.3,0.8,0.5,1.2,0.5h3.8c0.5,0,0.9-0.2,1.2-0.5l3-3h-9.7c-0.5,0-0.9-0.2-1.2-0.5
						l-0.7-0.7c-0.3-0.3-0.8-0.5-1.2-0.5h-3.8c-0.5,0-0.9,0.2-1.2,0.5l-3,3h9.7C353.9,164,354.3,164.1,354.6,164.5z"/>
				</g>
			</g>
			<g>
				<path class="st0" d="M38.4,177.9v-2.8c0-0.5-0.2-0.9-0.5-1.2l-6-6c-0.3-0.3-0.8-0.5-1.2-0.5h-23c-0.5,0-0.9,0.2-1.2,0.5l-6,6
					c-0.3,0.3-0.5,0.8-0.5,1.2v16c0,0.5,0.2,0.9,0.5,1.2l6,6c0.3,0.3,0.8,0.5,1.2,0.5h23c0.5,0,0.9-0.2,1.2-0.5l6-6
					c0.3-0.3,0.5-0.8,0.5-1.2v-2.8l-5.2,0l0,3.5c0,1-0.8,1.7-1.7,1.7H7c-1,0-1.7-0.8-1.7-1.7v-17.4c0-0.9,0.8-1.7,1.7-1.7h24.5
					c0.9,0,1.7,0.8,1.7,1.7v3.5L38.4,177.9z"/>
			</g>
			<g>
				<path class="st0" d="M387.3,193.6c-1,0-1.7-0.8-1.7-1.7v-4.4c0-1,0.8-1.7,1.7-1.7l0,0H404c0.5,0,0.9-0.2,1.2-0.5l4.7-4.7h-22.7
					c-1,0-1.7-0.8-1.7-1.7v-4.4c0-1,0.8-1.7,1.7-1.7h29.7l-4.7-4.7c-0.3-0.3-0.8-0.5-1.2-0.5h-23c-0.5,0-0.9,0.2-1.2,0.5l-5.9,5.9
					c-0.3,0.3-0.5,0.8-0.5,1.2v16c0,0.5,0.2,0.9,0.5,1.2l5.9,5.9c0.3,0.3,0.8,0.5,1.2,0.5h23c0.5,0,0.9-0.2,1.2-0.5l4.7-4.7
					L387.3,193.6L387.3,193.6z"/>
			</g>
			<g>
				<path class="st0" d="M277.4,160.5v2.8c0,0.5,0.2,0.9,0.5,1.2l1.2,1.2c1,1,1,2.5,0,3.5l-1.2,1.2c-0.3,0.3-0.5,0.8-0.5,1.2v27.2
					h5.2v-38.4H277.4z"/>
			</g>
		</g>
	</g>
</g>
</svg>
