<?xml version="1.0" encoding="utf-8"?>
<!-- Generator: Adobe Illustrator 28.1.0, SVG Export Plug-In . SVG Version: 6.00 Build 0)  -->
<svg version="1.1" id="Layer_1" xmlns="http://www.w3.org/2000/svg" xmlns:xlink="http://www.w3.org/1999/xlink" x="0px" y="0px"
	 viewBox="0 0 315.8 153.5" style="enable-background:new 0 0 315.8 153.5;" xml:space="preserve">
<style type="text/css">
	.st0{fill:#04043A;}
	.st1{fill:#E59900;}
	.st2{fill:#00BDD1;}
	.st3{fill:#E55A15;}
	.st4{fill:#892A0C;}
	.st5{fill:#E2173A;}
	.st6{fill:#8E631C;}
	.st7{fill:#ED247F;}
	.st8{fill:#6B1CB7;}
	.st9{fill:#5F00F4;}
	.st10{fill:#F1C911;}
	.st11{fill:#5B93B2;}
	.st12{fill:#239696;}
</style>
<g>
	<g>
		<g>
			<g>
				<polygon class="st9" points="231.1,31.4 231.1,45.4 199.7,14 199.7,0 				"/>
				<polygon class="st9" points="231.1,45.4 231.1,59.3 199.7,90.7 199.7,76.8 				"/>
			</g>
			<g>
				<polygon class="st9" points="84.6,59.3 84.6,45.4 116,76.8 116,90.7 				"/>
				<polygon class="st9" points="84.6,45.4 84.6,31.4 116,0 116,14 				"/>
			</g>
		</g>
		<path class="st0" d="M192.8,31.2h-45.4V13.8H130l-7,10.5h14v41.9h7v10.5h10.5V66.1h17.4v10.5h10.5V66.1h0l10.5-10.5l0,0l0,0l0,0h0
			L192.8,31.2z M182.3,55.6h-34.9v-14h34.9V55.6z"/>
	</g>
	<g>
		<g>
			<path class="st0" d="M315.8,132.6v-2.8c0-0.5-0.2-0.9-0.5-1.2l-5.9-5.9c-0.3-0.3-0.8-0.5-1.2-0.5h-23c-0.5,0-0.9,0.2-1.2,0.5
				l-5.9,5.9c-0.3,0.3-0.5,0.8-0.5,1.2v2c0,0.5,0.2,0.9,0.5,1.2l6.8,6.8c0.3,0.3,0.8,0.5,1.2,0.5l22.8,0c1,0,1.7,0.8,1.7,1.7v4.4
				c0,0.9-0.8,1.7-1.7,1.7l-24.5,0c-1,0-1.7-0.8-1.7-1.7V143l-5.2,0v2.8c0,0.5,0.2,0.9,0.5,1.2l5.9,5.9c0.3,0.3,0.8,0.5,1.2,0.5h23
				c0.5,0,0.9-0.2,1.2-0.5l5.9-5.9c0.3-0.3,0.5-0.8,0.5-1.2v-2c0-0.5-0.2-0.9-0.5-1.2l-6.8-6.8c-0.3-0.3-0.8-0.5-1.2-0.5l-22.8,0
				c-1,0-1.7-0.8-1.7-1.7v-4.4c0-1,0.8-1.7,1.7-1.7h24.4c1,0,1.7,0.8,1.7,1.7v3.5L315.8,132.6z"/>
		</g>
		<g>
			<path class="st0" d="M133.8,125.1l-2.5-2.5c-0.3-0.3-0.8-0.5-1.2-0.5h-2.5c-0.7,0-1.3,0.4-1.6,1L114.1,150v0
				c-0.6,1.3-2.5,1.3-3.1,0h0v0L99,123.2c-0.3-0.6-0.9-1-1.6-1h-2.5c-0.5,0-0.9,0.2-1.2,0.5l-2.5,2.5c-0.3,0.3-0.5,0.8-0.5,1.2v27.2
				h5.2v-22.6c0-0.2,0.2-0.2,0.3-0.1l10.2,22.6h12.2l10.2-22.6c0.1-0.1,0.3-0.1,0.3,0.1v22.6h5.2v-27.2
				C134.3,125.9,134.1,125.4,133.8,125.1z"/>
		</g>
		<g>
			<path class="st0" d="M83.2,128.6l-5.9-5.9c-0.3-0.3-0.8-0.5-1.2-0.5h-23c-0.5,0-0.9,0.2-1.2,0.5l-5.9,5.9
				c-0.3,0.3-0.5,0.8-0.5,1.2v16c0,0.5,0.2,0.9,0.5,1.2l5.9,5.9c0.3,0.3,0.8,0.5,1.2,0.5h23c0.5,0,0.9-0.2,1.2-0.5l5.9-5.9
				c0.3-0.3,0.5-0.8,0.5-1.2v-16C83.7,129.3,83.5,128.9,83.2,128.6z M76.8,127.3c1,0,1.7,0.8,1.7,1.7v17.4c0,1-0.8,1.7-1.7,1.7H52.3
				c-1,0-1.7-0.8-1.7-1.7v-17.4c0-1,0.8-1.7,1.7-1.7H76.8z"/>
		</g>
		<g>
			<path class="st0" d="M179.2,128.6l-5.9-5.9c-0.3-0.3-0.8-0.5-1.2-0.5h-23c-0.5,0-0.9,0.2-1.2,0.5l-5.9,5.9
				c-0.3,0.3-0.5,0.8-0.5,1.2v23.7h5.2v-7c0-1,0.8-1.7,1.7-1.7l23.7,0c0.5,0,0.9-0.2,1.2-0.5l5.9-5.9c0.3-0.3,0.5-0.8,0.5-1.2v-7.3
				C179.7,129.3,179.5,128.9,179.2,128.6z M172.8,139.5h-24.5c-1,0-1.7-0.8-1.7-1.7v-8.7c0-1,0.8-1.7,1.7-1.7h24.4
				c1,0,1.7,0.8,1.7,1.7v8.7C174.4,138.8,173.7,139.5,172.8,139.5z"/>
		</g>
		<g>
			<g>
				<polygon class="st0" points="216.3,144.8 215.8,144.3 215.8,144.3 				"/>
				<path class="st0" d="M216.3,143h1c0.5,0,0.9-0.2,1.2-0.5l5.9-5.9c0.3-0.3,0.5-0.8,0.5-1.2v-5.5c0-0.5-0.2-0.9-0.5-1.2l-5.9-5.9
					c-0.3-0.3-0.8-0.5-1.2-0.5h-23c-0.5,0-0.9,0.2-1.2,0.5l-5.9,5.9c-0.3,0.3-0.5,0.8-0.5,1.2v23.7h5.2v-8.7c0-1,0.8-1.7,1.7-1.7
					l12.2,0c1.1,0,2.2,0.4,2.9,1.2l9.2,9.2h7l-9.2-9.2l0,0C215.4,143.8,215.7,143,216.3,143z M219.8,136.1c0,1-0.8,1.7-1.7,1.7
					h-24.4c-1,0-1.7-0.8-1.7-1.7v-7c0-1,0.8-1.7,1.7-1.7h24.4c1,0,1.7,0.8,1.7,1.7V136.1z"/>
			</g>
		</g>
		<g>
			<path class="st0" d="M269.9,128.6l-5.9-5.9c-0.3-0.3-0.8-0.5-1.2-0.5h-23c-0.5,0-0.9,0.2-1.2,0.5l-5.9,5.9
				c-0.3,0.3-0.5,0.8-0.5,1.2v23.7h5.2V143h23.7c0.5,0,0.9-0.2,1.2-0.5l1.7-1.7c0.5-0.4,1.2-0.1,1.2,0.5l0,0v12.2h5.2v-23.7
				C270.4,129.3,270.2,128.9,269.9,128.6z M241.5,137.8c-0.5,0-0.9,0.2-1.2,0.5l-1.7,1.7c-0.5,0.5-1.2,0.1-1.2-0.5v-10.5
				c0-1,0.8-1.7,1.7-1.7h24.4c1,0,1.7,0.8,1.7,1.7v8.7H241.5z"/>
		</g>
		<g>
			<path class="st0" d="M38.4,132.6v-2.8c0-0.5-0.2-0.9-0.5-1.2l-6-6c-0.3-0.3-0.8-0.5-1.2-0.5h-23c-0.5,0-0.9,0.2-1.2,0.5l-6,6
				c-0.3,0.3-0.5,0.8-0.5,1.2v16c0,0.5,0.2,0.9,0.5,1.2l6,6c0.3,0.3,0.8,0.5,1.2,0.5h23c0.5,0,0.9-0.2,1.2-0.5l6-6
				c0.3-0.3,0.5-0.8,0.5-1.2V143l-5.2,0l0,3.5c0,1-0.8,1.7-1.7,1.7H7c-1,0-1.7-0.8-1.7-1.7v-17.4c0-0.9,0.8-1.7,1.7-1.7h24.5
				c0.9,0,1.7,0.8,1.7,1.7v3.5L38.4,132.6z"/>
		</g>
	</g>
</g>
</svg>
