<?xml version="1.0" encoding="UTF-8"?>
<svg id="Camada_2" data-name="Camada 2" xmlns="http://www.w3.org/2000/svg" viewBox="0 0 543.12 199.04">
  <defs>
    <style>
      .cls-1 {
        fill: #04043a;
      }

      .cls-1, .cls-2 {
        stroke-width: 0px;
      }

      .cls-2 {
        fill: #008643;
      }
    </style>
  </defs>
  <g id="Layer_1" data-name="Layer 1">
    <g>
      <g>
        <g>
          <path class="cls-1" d="M296.5,34.5v-10.42h0l-10.45-10.42h-34.35l-10.45,10.42h0v10.42h0l10.45,10.42h34.34l10.46-10.42ZM251.67,34.5v-10.42h34.4v10.42h-34.4Z"/>
          <polyline class="cls-1" points="241.2 51.78 251.64 62.22 268.95 62.25 279.23 51.83 251.6 51.77 241.2 41.37 241.2 51.75"/>
          <polyline class="cls-1" points="241.18 68.66 251.76 79.12 262.23 68.65 251.5 68.65 241.18 58.25 241.18 68.65"/>
          <polygon class="cls-1" points="306.09 33.28 301.68 37.61 301.72 52.34 313.17 40.86 306.09 33.28"/>
          <polygon class="cls-1" points="267.45 79.16 267.45 79.16 267.45 79.16 267.45 79.16"/>
          <g>
            <polygon class="cls-1" points="296.33 42.99 267.45 71.69 274.92 79.16 296.33 57.79 296.33 42.99"/>
            <polygon class="cls-1" points="267.45 79.16 274.92 79.16 267.45 71.69 267.45 79.16"/>
          </g>
        </g>
        <g>
          <g>
            <polygon class="cls-2" points="344.79 31.39 344.79 45.35 313.4 13.95 313.4 0 344.79 31.39"/>
            <polygon class="cls-2" points="344.79 45.35 344.79 59.3 313.4 90.7 313.4 76.75 344.79 45.35"/>
          </g>
          <g>
            <polygon class="cls-2" points="198.28 59.31 198.28 45.35 229.67 76.75 229.67 90.7 198.28 59.31"/>
            <polygon class="cls-2" points="198.28 45.35 198.28 31.4 229.67 0 229.67 13.95 198.28 45.35"/>
          </g>
        </g>
      </g>
      <g>
        <path class="cls-1" d="M6.72,167.52c.29-.2.95-.31,1.97-.34,1.02-.03,4.04-.05,9.04-.05h10.38l3.26,3.12c2.14,2.08,3.33,3.26,3.56,3.56.26.26.39,1.53.39,3.8v3.46l3.51,3.51.05,2.92c0,.23,0,.55.02.97.02.42.02.73.02.93,0,.84-.03,1.43-.1,1.75-.07.49-1.3,1.93-3.7,4.33l-3.51,3.56h-12.13c-8.02,0-12.23-.1-12.62-.29-.39-.16-1.62-1.31-3.7-3.46l-3.17-3.21v-17.97l3.02-3.12c2.08-2.08,3.31-3.23,3.7-3.46ZM29.23,173.17l-.49-.49H6.62c-.52.46-.92.78-1.22.97v5.65l.63.49.58.54h22.12l.49-.54c.26-.26.41-.54.46-.85.05-.31.07-1.13.07-2.46s-.02-2.15-.07-2.46-.2-.59-.46-.85ZM32.54,186.23c-.26-.16-1.1-.27-2.51-.32-1.41-.05-4.98-.07-10.69-.07H6.62l-.58.54-.63.49v2.78c0,1.3.02,2.11.07,2.44.05.33.2.62.46.88l.49.54h25.82l.58-.78c.26-.36.42-.7.49-1.02.07-.32.1-1.05.1-2.19,0-1.62-.07-2.53-.19-2.73-.16-.16-.39-.34-.68-.54Z"/>
        <path class="cls-1" d="M43.99,174.15c1.59-1.56,3.95-3.9,7.06-7.01h12.18c8.12,0,12.37.1,12.76.29.23.1,1.46,1.27,3.7,3.51l3.12,3.17v24.94h-5.5v-6.38c0-4.29-.11-6.46-.34-6.53h-.05c-.26,0-.78.36-1.56,1.07l-1.27,1.22h-24.65v10.62h-5.55c.03-2.76.05-6.91.05-12.45s.02-9.68.05-12.45ZM76.72,173.13c-.26-.23-.97-.36-2.12-.39-1.15-.03-4.9-.05-11.23-.05h-5.7c-3.38,0-5.44.02-6.19.07s-1.2.15-1.36.32c-.32.33-.52.63-.58.93-.07.32-.1,2.24-.1,5.75.03,3.57.18,5.42.44,5.55.13.07.21.1.24.1.2,0,.67-.37,1.41-1.12l1.32-1.32c2.73-.03,6.81-.05,12.25-.05s9.51-.02,12.2-.05v-9.35l-.58-.39Z"/>
        <path class="cls-1" d="M87.97,173.81c2.37-2.34,4.73-4.69,7.06-7.06h24.99c2.31,2.34,4.63,4.66,6.97,6.96v3.7h-5.31l-.1-2c-.03-1.3-.23-2.14-.58-2.53l-.49-.58h-13.01c-6.17,0-9.91.02-11.2.07-1.3.05-2.05.17-2.24.37-.42.42-.63,1.22-.63,2.39,0,.13,0,.35.02.66.02.31.02.56.02.75.03,1.59.21,2.55.54,2.87l.49.49c2.76,0,6.89.03,12.4.1,5.5.07,9.64.1,12.4.1,1.69,1.72,4.25,4.3,7.7,7.74v3.8c-2.37,2.34-4.72,4.69-7.06,7.06l-11.84.05h-5.36c-4.58,0-6.97-.02-7.16-.05-.49-.1-1.8-1.19-3.95-3.26-2.14-2.14-3.3-3.43-3.46-3.85-.2-.39-.29-1.12-.29-2.19v-1.51h5.5l.1,2.14c.03,1.43.21,2.31.54,2.63l.49.49,12.47.05h5.65c4.77,0,7.26-.02,7.45-.05.52-.1.91-.37,1.17-.83.23-.39.34-1.05.34-2v-1.17c-.03-1.14-.07-1.86-.12-2.17-.05-.31-.2-.59-.46-.85l-.49-.58c-2.73,0-6.81-.02-12.25-.05-5.44-.03-9.52-.05-12.25-.05-2.63-2.73-5.31-5.41-8.04-8.04v-3.6Z"/>
        <path class="cls-1" d="M138.73,167.52c.29-.2,1.03-.31,2.22-.34,1.18-.03,4.72-.05,10.59-.05h12.23l2.63,2.58c1.75,1.75,2.63,2.68,2.63,2.78,0,.13-5.07.2-15.2.2-7.53,0-11.98.02-13.32.05-1.35.03-2.15.16-2.41.39-.26.23-.41.47-.46.73s-.07,1.1-.07,2.53.02,2.3.07,2.61c.05.31.19.58.41.8l.54.54h11.74c7.79,0,11.69.05,11.69.15,0,.13-.81.97-2.44,2.53-1.62,1.56-2.57,2.42-2.83,2.58-.39.16-3.49.24-9.3.24h-4.34c-2.57,0-4.14.11-4.72.32s-.88.8-.88,1.78c0,.13,0,.38.02.75.02.37.02.67.02.9,0,1.4.02,2.26.07,2.58s.19.6.41.83l.54.49h15.25c10.13,0,15.2.07,15.2.2,0,.07-.86.96-2.58,2.68l-2.53,2.58-12.18.05h-4.09c-5.29,0-8.17-.07-8.62-.2-.49-.23-1.75-1.38-3.8-3.46l-3.21-3.26v-17.97l3.02-3.07c2.01-2.08,3.25-3.25,3.7-3.51Z"/>
        <path class="cls-1" d="M174.33,173.81c2.37-2.34,4.73-4.69,7.06-7.06h24.99c2.31,2.34,4.63,4.66,6.97,6.96v3.7h-5.31l-.1-2c-.03-1.3-.23-2.14-.58-2.53l-.49-.58h-13.01c-6.17,0-9.91.02-11.2.07-1.3.05-2.05.17-2.24.37-.42.42-.63,1.22-.63,2.39,0,.13,0,.35.02.66.02.31.02.56.02.75.03,1.59.21,2.55.54,2.87l.49.49c2.76,0,6.89.03,12.4.1,5.5.07,9.64.1,12.4.1,1.69,1.72,4.25,4.3,7.7,7.74v3.8c-2.37,2.34-4.72,4.69-7.06,7.06l-11.84.05h-5.36c-4.58,0-6.97-.02-7.16-.05-.49-.1-1.8-1.19-3.95-3.26-2.14-2.14-3.3-3.43-3.46-3.85-.2-.39-.29-1.12-.29-2.19v-1.51h5.5l.1,2.14c.03,1.43.21,2.31.54,2.63l.49.49,12.47.05h5.65c4.77,0,7.26-.02,7.45-.05.52-.1.91-.37,1.17-.83.23-.39.34-1.05.34-2v-1.17c-.03-1.14-.07-1.86-.12-2.17-.05-.31-.2-.59-.46-.85l-.49-.58c-2.73,0-6.81-.02-12.25-.05-5.44-.03-9.52-.05-12.25-.05-2.63-2.73-5.31-5.41-8.04-8.04v-3.6Z"/>
        <path class="cls-1" d="M230.5,173.95c2.31-2.34,4.63-4.66,6.97-6.97h25.18l6.82,6.82v8.96l-3.31,3.36c-2.18,2.18-3.46,3.38-3.85,3.6-.39.19-4.61.29-12.66.29h-2.68c-5.1,0-8.12.05-9.06.15-.94.1-1.54.44-1.8,1.02-.16.29-.24,1.69-.24,4.19v3.6h-5.36v-25.04ZM263.72,173.17l-.34-.63h-16.22c-6.4,0-9.89.11-10.47.34-.29.13-.5.39-.63.78-.16.42-.24,2.03-.24,4.82s.08,4.43.24,4.92c.2.49.41.78.63.88.32.16,4.22.24,11.69.24,9.29,0,14.11-.1,14.47-.29.55-.26.89-.71,1.02-1.34.13-.63.2-2.17.2-4.6,0-2.96-.11-4.66-.34-5.11Z"/>
        <path class="cls-1" d="M278.23,169.91l3.22-3.17h25.09l3.21,3.17c2.08,2.08,3.23,3.31,3.46,3.7.23.52.34,1.85.34,3.99v3.31l-7.21,7.21h-.97c-.62,0-1.04.11-1.27.34-.03.03-.05.08-.05.15,0,.26,1.54,1.93,4.63,5.02,3.25,3.25,4.87,4.92,4.87,5.02s-1.2.15-3.6.15h-3.56l-4.72-4.72c-3.21-3.21-5.07-4.97-5.55-5.26l-.83-.58-6.77-.05c-.52,0-1.25,0-2.19-.02-.94-.02-1.59-.02-1.95-.02-1.75,0-2.76.03-3.02.1-.29.07-.6.26-.93.58-.19.23-.32.6-.37,1.12-.05.52-.07,1.88-.07,4.09v4.77h-5.55v-12.27c0-8.22.1-12.52.29-12.91.16-.29,1.33-1.53,3.51-3.7ZM307.51,172.88l-.39-.58h-26.06l-.54.54c-.26.26-.41.58-.46.97s-.07,1.59-.07,3.6.02,3.26.07,3.65.2.71.46.97l.54.54h25.87l.54-.54c.26-.26.41-.58.46-.97s.07-1.59.07-3.6c0-1.85-.02-3.01-.07-3.48s-.19-.84-.41-1.1Z"/>
        <path class="cls-1" d="M318.57,173.95c2.3-2.34,4.63-4.66,6.97-6.97h24.94c2.34,2.31,4.66,4.63,6.97,6.97v18.07l-3.12,3.17c-2.21,2.21-3.49,3.38-3.85,3.51-.55.23-4.71.34-12.47.34s-11.92-.11-12.47-.34c-.42-.16-1.71-1.32-3.85-3.46l-3.12-3.21v-18.07ZM351.44,172.93c-.16-.16-.62-.27-1.39-.32-.76-.05-2.87-.07-6.31-.07h-5.8c-6.4,0-10.18.02-11.35.05-1.17.03-1.85.15-2.05.34-.29.29-.47.6-.54.93-.03.19-.05,3.36-.05,9.5l.05,9.06.58.54.63.49h12.91l12.86-.1.97-.97.1-8.82v-2.68c0-4.16-.03-6.43-.1-6.82-.07-.45-.24-.83-.54-1.12Z"/>
        <path class="cls-1" d="M362.4,173.95c2.31-2.34,4.63-4.66,6.97-6.97h25.18l6.82,6.82v8.96l-3.31,3.36c-2.18,2.18-3.46,3.38-3.85,3.6-.39.19-4.61.29-12.66.29h-2.68c-5.1,0-8.12.05-9.06.15-.94.1-1.54.44-1.8,1.02-.16.29-.24,1.69-.24,4.19v3.6h-5.36v-25.04ZM395.62,173.17l-.34-.63h-16.22c-6.4,0-9.89.11-10.47.34-.29.13-.5.39-.63.78-.16.42-.24,2.03-.24,4.82s.08,4.43.24,4.92c.2.49.41.78.63.88.32.16,4.22.24,11.69.24,9.29,0,14.11-.1,14.47-.29.55-.26.89-.71,1.02-1.34.13-.63.2-2.17.2-4.6,0-2.96-.11-4.66-.34-5.11Z"/>
        <path class="cls-1" d="M410.14,169.91l3.22-3.17h25.09l3.21,3.17c2.08,2.08,3.23,3.31,3.46,3.7.23.52.34,1.85.34,3.99v3.31l-7.21,7.21h-.97c-.62,0-1.04.11-1.27.34-.03.03-.05.08-.05.15,0,.26,1.54,1.93,4.63,5.02,3.25,3.25,4.87,4.92,4.87,5.02s-1.2.15-3.6.15h-3.56l-4.72-4.72c-3.21-3.21-5.07-4.97-5.55-5.26l-.83-.58-6.77-.05c-.52,0-1.25,0-2.19-.02-.94-.02-1.59-.02-1.95-.02-1.75,0-2.76.03-3.02.1-.29.07-.6.26-.93.58-.19.23-.32.6-.37,1.12-.05.52-.07,1.88-.07,4.09v4.77h-5.55v-12.27c0-8.22.1-12.52.29-12.91.16-.29,1.33-1.53,3.51-3.7ZM439.42,172.88l-.39-.58h-26.06l-.54.54c-.26.26-.41.58-.46.97s-.07,1.59-.07,3.6.02,3.26.07,3.65.2.71.46.97l.54.54h25.87l.54-.54c.26-.26.41-.58.46-.97s.07-1.59.07-3.6c0-1.85-.02-3.01-.07-3.48s-.19-.84-.41-1.1Z"/>
        <path class="cls-1" d="M450.47,168.4l-.1-1.46h4.72v31.91h-4.68v-11.4c0-7.53.08-11.5.24-11.88.2-.36.55-.81,1.07-1.36.52-.55.78-1.05.78-1.51,0-.49-.41-1.15-1.22-2-.36-.36-.58-.66-.66-.9s-.14-.71-.17-1.39Z"/>
        <path class="cls-1" d="M460.12,174.15c1.59-1.56,3.95-3.9,7.06-7.01h12.18c8.12,0,12.37.1,12.76.29.23.1,1.46,1.27,3.7,3.51l3.12,3.17v24.94h-5.5v-6.38c0-4.29-.11-6.46-.34-6.53h-.05c-.26,0-.78.36-1.56,1.07l-1.27,1.22h-24.65v10.62h-5.55c.03-2.76.05-6.91.05-12.45s.02-9.68.05-12.45ZM492.85,173.13c-.26-.23-.97-.36-2.12-.39-1.15-.03-4.9-.05-11.23-.05h-5.7c-3.38,0-5.44.02-6.19.07s-1.2.15-1.36.32c-.32.33-.52.63-.58.93-.07.32-.1,2.24-.1,5.75.03,3.57.18,5.42.44,5.55.13.07.21.1.24.1.2,0,.67-.37,1.41-1.12l1.32-1.32c2.73-.03,6.81-.05,12.25-.05s9.51-.02,12.2-.05v-9.35l-.58-.39Z"/>
        <path class="cls-1" d="M504.1,173.81c2.37-2.34,4.73-4.69,7.06-7.06h24.99c2.31,2.34,4.63,4.66,6.97,6.96v3.7h-5.31l-.1-2c-.03-1.3-.23-2.14-.58-2.53l-.49-.58h-13.01c-6.17,0-9.91.02-11.2.07-1.3.05-2.05.17-2.24.37-.42.42-.63,1.22-.63,2.39,0,.13,0,.35.02.66.02.31.02.56.02.75.03,1.59.21,2.55.54,2.87l.49.49c2.76,0,6.89.03,12.4.1,5.5.07,9.64.1,12.4.1,1.69,1.72,4.25,4.3,7.7,7.74v3.8c-2.37,2.34-4.72,4.69-7.06,7.06l-11.84.05h-5.36c-4.58,0-6.97-.02-7.16-.05-.49-.1-1.8-1.19-3.95-3.26-2.14-2.14-3.3-3.43-3.46-3.85-.2-.39-.29-1.12-.29-2.19v-1.51h5.5l.1,2.14c.03,1.43.21,2.31.54,2.63l.49.49,12.47.05h5.65c4.77,0,7.26-.02,7.45-.05.52-.1.91-.37,1.17-.83.23-.39.34-1.05.34-2v-1.17c-.03-1.14-.07-1.86-.12-2.17-.05-.31-.2-.59-.46-.85l-.49-.58c-2.73,0-6.81-.02-12.25-.05-5.44-.03-9.52-.05-12.25-.05-2.63-2.73-5.31-5.41-8.04-8.04v-3.6Z"/>
      </g>
      <g>
        <path class="cls-1" d="M92.23,129.05l6.92-6.92h24.84c3.12,3.05,5.44,5.36,6.97,6.92v3.7h-5.31l-.05-2c-.03-1.3-.23-2.14-.58-2.53l-.54-.54h-18.66c-3.41,0-5.49.02-6.23.07-.75.05-1.2.15-1.36.32-.33.33-.52.63-.58.93-.03.16-.05,3.31-.05,9.45l.05,9.01c.13.13.33.3.61.51.28.21.48.38.61.51h25.48l.58-.49c.29-.23.46-.47.51-.73.05-.26.07-.97.07-2.14s-.02-1.84-.07-2.12c-.05-.28-.19-.53-.41-.75l-.54-.54h-11.74c-7.86,0-11.79-.06-11.79-.19,0-.16.88-1.09,2.63-2.78l2.63-2.58h21.14c.42.39,1.03.97,1.83,1.75.8.78,1.39,1.36,1.78,1.75v7.4l-3.12,3.21c-2.14,2.14-3.39,3.3-3.75,3.46-.46.23-4.61.34-12.47.34s-12.06-.11-12.52-.34c-.33-.16-1.58-1.31-3.75-3.46l-3.12-3.21v-18.02Z"/>
        <path class="cls-1" d="M142.7,122.52c.29-.2,1.03-.31,2.22-.34,1.18-.03,4.72-.05,10.59-.05h12.23l2.63,2.58c1.75,1.75,2.63,2.68,2.63,2.78,0,.13-5.07.2-15.2.2-7.53,0-11.98.02-13.32.05-1.35.03-2.15.16-2.41.39-.26.23-.41.47-.46.73s-.07,1.1-.07,2.53.02,2.3.07,2.61c.05.31.19.58.41.8l.54.54h11.74c7.79,0,11.69.05,11.69.15,0,.13-.81.97-2.44,2.53-1.62,1.56-2.57,2.42-2.83,2.58-.39.16-3.49.24-9.3.24h-4.34c-2.57,0-4.14.11-4.72.32s-.88.8-.88,1.78c0,.13,0,.38.02.75.02.37.02.67.02.9,0,1.4.02,2.26.07,2.58s.19.6.41.83l.54.49h15.25c10.13,0,15.2.07,15.2.2,0,.07-.86.96-2.58,2.68l-2.53,2.58-12.18.05h-4.09c-5.29,0-8.17-.07-8.62-.2-.49-.23-1.75-1.38-3.8-3.46l-3.21-3.26v-17.97l3.02-3.07c2.01-2.08,3.25-3.25,3.7-3.51Z"/>
        <path class="cls-1" d="M178.3,128.81c2.37-2.34,4.73-4.69,7.06-7.06h24.99c2.31,2.34,4.63,4.66,6.97,6.96v3.7h-5.31l-.1-2c-.03-1.3-.23-2.14-.58-2.53l-.49-.58h-13.01c-6.17,0-9.91.02-11.2.07-1.3.05-2.05.17-2.24.37-.42.42-.63,1.22-.63,2.39,0,.13,0,.35.02.66.02.31.02.56.02.75.03,1.59.21,2.55.54,2.87l.49.49c2.76,0,6.89.03,12.4.1,5.5.07,9.64.1,12.4.1,1.69,1.72,4.25,4.3,7.7,7.74v3.8c-2.37,2.34-4.72,4.69-7.06,7.06l-11.84.05h-5.36c-4.58,0-6.97-.02-7.16-.05-.49-.1-1.8-1.19-3.95-3.26-2.14-2.14-3.3-3.43-3.46-3.85-.2-.39-.29-1.12-.29-2.19v-1.51h5.5l.1,2.14c.03,1.43.21,2.31.54,2.63l.49.49,12.47.05h5.65c4.77,0,7.26-.02,7.45-.05.52-.1.91-.37,1.17-.83.23-.39.34-1.05.34-2v-1.17c-.03-1.14-.07-1.86-.12-2.17-.05-.31-.2-.59-.46-.85l-.49-.58c-2.73,0-6.81-.02-12.25-.05-5.44-.03-9.52-.05-12.25-.05-2.63-2.73-5.31-5.41-8.04-8.04v-3.6Z"/>
        <path class="cls-1" d="M225.11,124.37l2.63-2.63h31.76l2.63,2.63c1.75,1.75,2.63,2.68,2.63,2.78s-2.84.15-8.52.15-8.48.05-8.87.15c-.46.16-.73.88-.83,2.14s-.15,5.16-.15,11.69v12.52h-5.31l-.05-12.71-.1-12.76-1.17-1.02h-8.67c-5.75,0-8.62-.05-8.62-.15s.88-1.02,2.63-2.78Z"/>
        <path class="cls-1" d="M270.07,129.15c1.59-1.56,3.95-3.9,7.06-7.01h12.18c8.12,0,12.37.1,12.76.29.23.1,1.46,1.27,3.7,3.51l3.12,3.17v24.94h-5.5v-6.38c0-4.29-.11-6.46-.34-6.53h-.05c-.26,0-.78.36-1.56,1.07l-1.27,1.22h-24.65v10.62h-5.55c.03-2.76.05-6.91.05-12.45s.02-9.68.05-12.45ZM302.81,128.13c-.26-.23-.97-.36-2.12-.39-1.15-.03-4.9-.05-11.23-.05h-5.7c-3.38,0-5.44.02-6.19.07s-1.2.15-1.36.32c-.32.33-.52.63-.58.93-.07.32-.1,2.24-.1,5.75.03,3.57.18,5.42.44,5.55.13.07.21.1.24.1.2,0,.67-.37,1.41-1.12l1.32-1.32c2.73-.03,6.81-.05,12.25-.05s9.51-.02,12.2-.05v-9.35l-.58-.39Z"/>
        <path class="cls-1" d="M313.91,128.95c2.3-2.34,4.63-4.66,6.97-6.97h24.94c2.34,2.31,4.66,4.63,6.97,6.97v18.07l-3.12,3.17c-2.21,2.21-3.49,3.38-3.85,3.51-.55.23-4.71.34-12.47.34s-11.92-.11-12.47-.34c-.42-.16-1.71-1.32-3.85-3.46l-3.12-3.21v-18.07ZM346.79,127.93c-.16-.16-.62-.27-1.39-.32-.76-.05-2.87-.07-6.31-.07h-5.8c-6.4,0-10.18.02-11.35.05-1.17.03-1.85.15-2.05.34-.29.29-.47.6-.54.93-.03.19-.05,3.36-.05,9.5l.05,9.06.58.54.63.49h12.91l12.86-.1.97-.97.1-8.82v-2.68c0-4.16-.03-6.43-.1-6.82-.07-.45-.24-.83-.54-1.12Z"/>
        <path class="cls-1" d="M369.98,128.86c1.53-1.56,3.85-3.86,6.97-6.92h21.19l4.97,4.92c3.44,3.44,5.21,5.28,5.31,5.5.19.46.29,2.13.29,5.02,0,3.44-.11,5.41-.34,5.89-.23.46-1.98,2.32-5.26,5.6l-4.97,4.97h-20.99c-1.59-1.56-3.98-3.93-7.16-7.11v-17.88ZM399.06,131l-3.46-3.56h-19.19l-.44.49c-.2.2-.32.58-.37,1.14-.05.57-.07,2.18-.07,4.85v13.35l1.02,1.02h19.68l7.21-7.21-.1-2.78c-.1-1.88-.24-2.97-.44-3.26-.07-.1-.27-.32-.61-.66s-.84-.87-1.51-1.58c-.67-.71-1.24-1.32-1.73-1.8Z"/>
        <path class="cls-1" d="M420.44,122.52c.29-.2,1.03-.31,2.22-.34,1.18-.03,4.72-.05,10.59-.05h12.23l2.63,2.58c1.75,1.75,2.63,2.68,2.63,2.78,0,.13-5.07.2-15.2.2-7.53,0-11.98.02-13.32.05-1.35.03-2.15.16-2.41.39-.26.23-.41.47-.46.73s-.07,1.1-.07,2.53.02,2.3.07,2.61c.05.31.19.58.41.8l.54.54h11.74c7.79,0,11.69.05,11.69.15,0,.13-.81.97-2.44,2.53-1.62,1.56-2.57,2.42-2.83,2.58-.39.16-3.49.24-9.3.24h-4.34c-2.57,0-4.14.11-4.72.32s-.88.8-.88,1.78c0,.13,0,.38.02.75.02.37.02.67.02.9,0,1.4.02,2.26.07,2.58s.19.6.41.83l.54.49h15.25c10.13,0,15.2.07,15.2.2,0,.07-.86.96-2.58,2.68l-2.53,2.58-12.18.05h-4.09c-5.29,0-8.17-.07-8.62-.2-.49-.23-1.75-1.38-3.8-3.46l-3.21-3.26v-17.97l3.02-3.07c2.01-2.08,3.25-3.25,3.7-3.51Z"/>
        <path class="cls-1" d="M289.62,118.64l.71.71c.33.33.78.52,1.24.52h3.78c.47,0,.91-.19,1.24-.52l2.97-2.97h-9.74c-.47,0-.91-.19-1.24-.52l-.71-.71c-.33-.33-.78-.52-1.24-.52h-3.78c-.47,0-.91.19-1.24.52l-2.97,2.97h9.74c.47,0,.91.19,1.24.52Z"/>
      </g>
      <path class="cls-1" d="M350.59,167.87c-.33-.33-.78-.52-1.24-.52h-13.19l4.92-1.64c.18-.06.35-.16.48-.3l5.03-5.03-4.96,1.65c-.18.06-.35.16-.48.3l-3.28,3.28h0c-1.03,1.03-2.39,1.64-3.83,1.73h-7.65c-.47,0-.91.19-1.24.52"/>
    </g>
  </g>
</svg>