<?xml version="1.0" encoding="utf-8"?>
<!-- Generator: Adobe Illustrator 28.1.0, SVG Export Plug-In . SVG Version: 6.00 Build 0)  -->
<svg version="1.1" id="Layer_1" xmlns="http://www.w3.org/2000/svg" xmlns:xlink="http://www.w3.org/1999/xlink" x="0px" y="0px"
	 viewBox="0 0 525 153.5" style="enable-background:new 0 0 525 153.5;" xml:space="preserve">
<style type="text/css">
	.st0{fill:#04043A;}
	.st1{fill:#E59900;}
	.st2{fill:#00BDD1;}
	.st3{fill:#E55A15;}
	.st4{fill:#892A0C;}
	.st5{fill:#E2173A;}
	.st6{fill:#8E631C;}
	.st7{fill:#ED247F;}
	.st8{fill:#6B1CB7;}
	.st9{fill:#5F00F4;}
	.st10{fill:#F1C911;}
	.st11{fill:#5B93B2;}
	.st12{fill:#239696;}
</style>
<g>
	<g>
		<g>
			<g>
				<polygon class="st11" points="335.8,31.4 335.8,45.4 304.4,14 304.4,0 				"/>
				<polygon class="st11" points="335.8,45.4 335.8,59.3 304.4,90.7 304.4,76.8 				"/>
			</g>
			<g>
				<polygon class="st11" points="189.2,59.3 189.2,45.4 220.6,76.8 220.6,90.7 				"/>
				<polygon class="st11" points="189.2,45.4 189.2,31.4 220.6,0 220.6,14 				"/>
			</g>
		</g>
		<g>
			
				<rect x="257.3" y="14" transform="matrix(-1.836970e-16 1 -1 -1.836970e-16 307.8405 -217.13)" class="st0" width="10.5" height="62.8"/>
			
				<rect x="257.3" y="-7" transform="matrix(-1.836970e-16 1 -1 -1.836970e-16 286.9098 -238.0607)" class="st0" width="10.5" height="62.8"/>
			
				<rect x="257.3" y="34.9" transform="matrix(-1.836970e-16 1 -1 -1.836970e-16 328.7719 -196.1986)" class="st0" width="10.5" height="62.8"/>
		</g>
	</g>
	<g>
		<g>
			<path class="st0" d="M37.9,128.6l-5.9-5.9c-0.3-0.3-0.8-0.5-1.2-0.5h-23c-0.5,0-0.9,0.2-1.2,0.5l-5.9,5.9
				c-0.3,0.3-0.5,0.8-0.5,1.2v16c0,0.5,0.2,0.9,0.5,1.2l5.9,5.9c0.3,0.3,0.8,0.5,1.2,0.5h23c0.5,0,0.9-0.2,1.2-0.5l5.9-5.9
				c0.3-0.3,0.5-0.8,0.5-1.2v-16C38.4,129.3,38.2,128.9,37.9,128.6z M31.4,127.3c1,0,1.7,0.8,1.7,1.7v17.4c0,1-0.8,1.7-1.7,1.7H7
				c-1,0-1.7-0.8-1.7-1.7v-17.4c0-1,0.8-1.7,1.7-1.7H31.4z"/>
		</g>
		<g>
			<path class="st0" d="M50.6,136.1v-7c0-1,0.8-1.7,1.7-1.7H82l-4.7-4.7c-0.3-0.3-0.8-0.5-1.2-0.5h-23c-0.5,0-0.9,0.2-1.2,0.5
				l-5.9,5.9c-0.3,0.3-0.5,0.8-0.5,1.2v23.7h5.2v-8.7c0-1,0.8-1.7,1.7-1.7l16.7,0c0.5,0,0.9-0.2,1.2-0.5l4.7-4.7H52.3
				C51.4,137.8,50.6,137,50.6,136.1z"/>
		</g>
		<g>
			<g>
				<path class="st0" d="M174.4,132.6v-2.8c0-0.5-0.2-0.9-0.5-1.2l-5.9-5.9c-0.3-0.3-0.8-0.5-1.2-0.5h-23c-0.5,0-0.9,0.2-1.2,0.5
					l-5.9,5.9c-0.3,0.3-0.5,0.8-0.5,1.2v2c0,0.5,0.2,0.9,0.5,1.2l6.8,6.8c0.3,0.3,0.8,0.5,1.2,0.5l22.8,0c1,0,1.7,0.8,1.7,1.7v4.4
					c0,0.9-0.8,1.7-1.7,1.7l-24.5,0c-1,0-1.7-0.8-1.7-1.7V143l-5.2,0v2.8c0,0.5,0.2,0.9,0.5,1.2l5.9,5.9c0.3,0.3,0.8,0.5,1.2,0.5h23
					c0.5,0,0.9-0.2,1.2-0.5l5.9-5.9c0.3-0.3,0.5-0.8,0.5-1.2v-2c0-0.5-0.2-0.9-0.5-1.2l-6.8-6.8c-0.3-0.3-0.8-0.5-1.2-0.5l-22.8,0
					c-1,0-1.7-0.8-1.7-1.7v-4.4c0-1,0.8-1.7,1.7-1.7h24.4c1,0,1.7,0.8,1.7,1.7v3.5L174.4,132.6z"/>
			</g>
			<g>
				<path class="st0" d="M215.1,122.6c-0.3-0.3-0.8-0.5-1.2-0.5h-29.9c-0.5,0-0.9,0.2-1.2,0.5l-4.7,4.7h16.6c1,0,1.7,0.8,1.7,1.7
					v24.4h5.2v-24.4c0-1,0.8-1.7,1.7-1.7h16.6L215.1,122.6z"/>
			</g>
			<g>
				<path class="st0" d="M347.6,122.6c-0.3-0.3-0.8-0.5-1.2-0.5h-29.9c-0.5,0-0.9,0.2-1.2,0.5l-4.7,4.7H327c1,0,1.7,0.8,1.7,1.7
					v24.4h5.2v-24.4c0-1,0.8-1.7,1.7-1.7h16.6L347.6,122.6z"/>
			</g>
			<g>
				<path class="st0" d="M301.7,122.1v24.4c0,1-0.8,1.7-1.7,1.7h-24.4c-1,0-1.7-0.8-1.7-1.7v-24.4l-5.2,0v23.7
					c0,0.5,0.2,0.9,0.5,1.2l5.9,5.9c0.3,0.3,0.8,0.5,1.2,0.5h23c0.5,0,0.9-0.2,1.2-0.5l5.9-5.9c0.3-0.3,0.5-0.8,0.5-1.2v-23.7
					L301.7,122.1z"/>
			</g>
			<g>
				<path class="st0" d="M388.9,122.1v24.4c0,1-0.8,1.7-1.7,1.7h-24.4c-1,0-1.7-0.8-1.7-1.7v-24.4l-5.2,0v23.7
					c0,0.5,0.2,0.9,0.5,1.2l5.9,5.9c0.3,0.3,0.8,0.5,1.2,0.5h23c0.5,0,0.9-0.2,1.2-0.5l5.9-5.9c0.3-0.3,0.5-0.8,0.5-1.2v-23.7
					L388.9,122.1z"/>
			</g>
			<g>
				<path class="st0" d="M498.8,148.3c-1,0-1.7-0.8-1.7-1.7v-24.4h-5.2v23.7c0,0.5,0.2,0.9,0.5,1.2l5.9,5.9c0.3,0.3,0.8,0.5,1.2,0.5
					l19.5,0c0.5,0,0.9-0.2,1.2-0.5l4.7-4.7H498.8z"/>
			</g>
			<g>
				<g>
					<polygon class="st0" points="252.9,144.8 252.4,144.3 252.4,144.3 					"/>
					<path class="st0" d="M252.9,143h1c0.5,0,0.9-0.2,1.2-0.5l5.9-5.9c0.3-0.3,0.5-0.8,0.5-1.2v-5.5c0-0.5-0.2-0.9-0.5-1.2l-5.9-5.9
						c-0.3-0.3-0.8-0.5-1.2-0.5h-23c-0.5,0-0.9,0.2-1.2,0.5l-5.9,5.9c-0.3,0.3-0.5,0.8-0.5,1.2v23.7h5.2v-8.7c0-1,0.8-1.7,1.7-1.7
						l12.2,0c1.1,0,2.2,0.4,2.9,1.2l9.2,9.2h7l-9.2-9.2l0,0C251.9,143.8,252.3,143,252.9,143z M256.4,136.1c0,1-0.8,1.7-1.7,1.7
						h-24.4c-1,0-1.7-0.8-1.7-1.7v-7c0-1,0.8-1.7,1.7-1.7h24.4c1,0,1.7,0.8,1.7,1.7V136.1z"/>
				</g>
			</g>
			<g>
				<g>
					<polygon class="st0" points="430.8,144.8 430.3,144.3 430.3,144.3 					"/>
					<path class="st0" d="M430.8,143h1c0.5,0,0.9-0.2,1.2-0.5l5.9-5.9c0.3-0.3,0.5-0.8,0.5-1.2v-5.5c0-0.5-0.2-0.9-0.5-1.2l-5.9-5.9
						c-0.3-0.3-0.8-0.5-1.2-0.5h-23c-0.5,0-0.9,0.2-1.2,0.5l-5.9,5.9c-0.3,0.3-0.5,0.8-0.5,1.2v23.7h5.2v-8.7c0-1,0.8-1.7,1.7-1.7
						l12.2,0c1.1,0,2.2,0.4,2.9,1.2l9.2,9.2h7l-9.2-9.2l0,0C429.8,143.8,430.1,143,430.8,143z M434.3,136.1c0,1-0.8,1.7-1.7,1.7
						h-24.4c-1,0-1.7-0.8-1.7-1.7v-7c0-1,0.8-1.7,1.7-1.7h24.4c1,0,1.7,0.8,1.7,1.7V136.1z"/>
				</g>
			</g>
			<g>
				<path class="st0" d="M484.3,128.6l-5.9-5.9c-0.3-0.3-0.8-0.5-1.2-0.5h-23c-0.5,0-0.9,0.2-1.2,0.5l-5.9,5.9
					c-0.3,0.3-0.5,0.8-0.5,1.2v23.7h5.2V143h23.7c0.5,0,0.9-0.2,1.2-0.5l1.7-1.7c0.5-0.4,1.2-0.1,1.2,0.5l0,0v12.2h5.2v-23.7
					C484.9,129.3,484.7,128.9,484.3,128.6z M455.9,137.8c-0.5,0-0.9,0.2-1.2,0.5l-1.7,1.7c-0.5,0.5-1.2,0.1-1.2-0.5v-10.5
					c0-1,0.8-1.7,1.7-1.7h24.4c1,0,1.7,0.8,1.7,1.7v8.7H455.9z"/>
			</g>
			<g>
				<path class="st0" d="M99.4,148.3c-1,0-1.7-0.8-1.7-1.7v-4.4c0-1,0.8-1.7,1.7-1.7l0,0h16.7c0.5,0,0.9-0.2,1.2-0.5l4.7-4.7H99.4
					c-1,0-1.7-0.8-1.7-1.7v-4.4c0-1,0.8-1.7,1.7-1.7h29.6l-4.7-4.7c-0.3-0.3-0.8-0.5-1.2-0.5h-23c-0.5,0-0.9,0.2-1.2,0.5l-5.9,5.9
					c-0.3,0.3-0.5,0.8-0.5,1.2v16c0,0.5,0.2,0.9,0.5,1.2l5.9,5.9c0.3,0.3,0.8,0.5,1.2,0.5h23c0.5,0,0.9-0.2,1.2-0.5l4.7-4.7
					L99.4,148.3L99.4,148.3z"/>
			</g>
		</g>
	</g>
</g>
</svg>
