<?xml version="1.0" encoding="utf-8"?>
<!-- Generator: Adobe Illustrator 28.1.0, SVG Export Plug-In . SVG Version: 6.00 Build 0)  -->
<svg version="1.1" id="Layer_1" xmlns="http://www.w3.org/2000/svg" xmlns:xlink="http://www.w3.org/1999/xlink" x="0px" y="0px"
	 viewBox="0 0 298.3 198.8" style="enable-background:new 0 0 298.3 198.8;" xml:space="preserve">
<style type="text/css">
	.st0{fill:#04043A;}
	.st1{fill:#E59900;}
	.st2{fill:#00BDD1;}
	.st3{fill:#E55A15;}
	.st4{fill:#892A0C;}
	.st5{fill:#E2173A;}
	.st6{fill:#8E631C;}
	.st7{fill:#ED247F;}
	.st8{fill:#6B1CB7;}
	.st9{fill:#5F00F4;}
	.st10{fill:#F1C911;}
	.st11{fill:#5B93B2;}
	.st12{fill:#239696;}
</style>
<g>
	<g>
		<g>
			<g>
				<path class="st0" d="M259,177.9v-2.8c0-0.5-0.2-0.9-0.5-1.2l-5.9-5.9c-0.3-0.3-0.8-0.5-1.2-0.5h-23c-0.5,0-0.9,0.2-1.2,0.5
					l-5.9,5.9c-0.3,0.3-0.5,0.8-0.5,1.2v2c0,0.5,0.2,0.9,0.5,1.2l6.8,6.8c0.3,0.3,0.8,0.5,1.2,0.5l22.8,0c1,0,1.7,0.8,1.7,1.7v4.4
					c0,0.9-0.8,1.7-1.7,1.7l-24.5,0c-1,0-1.7-0.8-1.7-1.7v-3.5l-5.2,0v2.8c0,0.5,0.2,0.9,0.5,1.2l5.9,5.9c0.3,0.3,0.8,0.5,1.2,0.5
					h23c0.5,0,0.9-0.2,1.2-0.5l5.9-5.9c0.3-0.3,0.5-0.8,0.5-1.2v-2c0-0.5-0.2-0.9-0.5-1.2l-6.8-6.8c-0.3-0.3-0.8-0.5-1.2-0.5
					l-22.8,0c-1,0-1.7-0.8-1.7-1.7v-4.4c0-1,0.8-1.7,1.7-1.7h24.4c1,0,1.7,0.8,1.7,1.7v3.5L259,177.9z"/>
			</g>
			<g>
				<path class="st0" d="M77.1,173.9l-5.9-5.9c-0.3-0.3-0.8-0.5-1.2-0.5h-23c-0.5,0-0.9,0.2-1.2,0.5l-5.9,5.9
					c-0.3,0.3-0.5,0.8-0.5,1.2v16c0,0.5,0.2,0.9,0.5,1.2l5.9,5.9c0.3,0.3,0.8,0.5,1.2,0.5h23c0.5,0,0.9-0.2,1.2-0.5l5.9-5.9
					c0.3-0.3,0.5-0.8,0.5-1.2v-16C77.6,174.7,77.4,174.2,77.1,173.9z M70.6,172.7c1,0,1.7,0.8,1.7,1.7v17.4c0,1-0.8,1.7-1.7,1.7
					H46.2c-1,0-1.7-0.8-1.7-1.7v-17.4c0-1,0.8-1.7,1.7-1.7H70.6z"/>
			</g>
			<g>
				<g>
					<polygon class="st0" points="159.6,190.1 159.1,189.6 159.1,189.6 					"/>
					<path class="st0" d="M159.6,188.4h1c0.5,0,0.9-0.2,1.2-0.5l5.9-5.9c0.3-0.3,0.5-0.8,0.5-1.2v-5.5c0-0.5-0.2-0.9-0.5-1.2
						l-5.9-5.9c-0.3-0.3-0.8-0.5-1.2-0.5h-23c-0.5,0-0.9,0.2-1.2,0.5l-5.9,5.9c-0.3,0.3-0.5,0.8-0.5,1.2v23.7h5.2v-8.7
						c0-1,0.8-1.7,1.7-1.7l12.2,0c1.1,0,2.2,0.4,2.9,1.2l9.2,9.2h7l-9.2-9.2l0,0C158.6,189.2,159,188.4,159.6,188.4z M163.1,181.4
						c0,1-0.8,1.7-1.7,1.7h-24.4c-1,0-1.7-0.8-1.7-1.7v-7c0-1,0.8-1.7,1.7-1.7h24.4c1,0,1.7,0.8,1.7,1.7V181.4z"/>
				</g>
			</g>
			<g>
				<path class="st0" d="M213.2,173.9l-5.9-5.9c-0.3-0.3-0.8-0.5-1.2-0.5h-23c-0.5,0-0.9,0.2-1.2,0.5l-5.9,5.9
					c-0.3,0.3-0.5,0.8-0.5,1.2v23.7h5.2v-10.5h23.7c0.5,0,0.9-0.2,1.2-0.5l1.7-1.7c0.5-0.4,1.2-0.1,1.2,0.5l0,0v12.2h5.2v-23.7
					C213.7,174.7,213.5,174.2,213.2,173.9z M184.8,183.1c-0.5,0-0.9,0.2-1.2,0.5l-1.7,1.7c-0.5,0.5-1.2,0.1-1.2-0.5v-10.5
					c0-1,0.8-1.7,1.7-1.7h24.4c1,0,1.7,0.8,1.7,1.7v8.7H184.8z"/>
			</g>
			<g>
				<path class="st0" d="M122.5,184.4l-3-3v-6.2c0-0.5-0.2-0.9-0.5-1.2L113,168c-0.3-0.3-0.8-0.5-1.2-0.5H92.3
					c-0.5,0-0.9,0.2-1.2,0.5l-5.9,5.9c-0.3,0.3-0.5,0.8-0.5,1.2v16c0,0.5,0.2,0.9,0.5,1.2l5.9,5.9c0.3,0.3,0.8,0.5,1.2,0.5l23,0
					c0.5,0,0.9-0.2,1.2-0.5l5.9-5.9c0.3-0.3,0.5-0.8,0.5-1.2v-5.5C123,185.2,122.8,184.7,122.5,184.4z M117.7,191.9
					c0,1-0.8,1.7-1.7,1.7l0,0H91.6l0,0c-1,0-1.7-0.8-1.7-1.7v-4.4c0-1,0.8-1.7,1.7-1.7l0,0H116l0,0c1,0,1.7,0.8,1.7,1.7l0,0
					L117.7,191.9L117.7,191.9z M114.3,178.8c0,1-0.8,1.7-1.7,1.7h-21c-1,0-1.7-0.8-1.7-1.7v-4.4c0-1,0.8-1.7,1.7-1.7l0,0h20.9l0,0
					c1,0,1.7,0.8,1.7,1.7l0,0L114.3,178.8L114.3,178.8z"/>
			</g>
		</g>
		<g>
			<g>
				<path class="st0" d="M95.4,128.6l-5.9-5.9c-0.3-0.3-0.8-0.5-1.2-0.5H75l4.8-1.6c0.3-0.1,0.5-0.2,0.7-0.4l4.9-4.9l-4.8,1.6
					c-0.3,0.1-0.5,0.2-0.7,0.4l-3.2,3.2l0,0c-1,1-2.4,1.6-3.8,1.7h-7.7c-0.5,0-0.9,0.2-1.2,0.5l-5.9,5.9c-0.3,0.3-0.5,0.8-0.5,1.2
					v23.7h5.2V143h23.7c0.5,0,0.9-0.2,1.2-0.5l1.7-1.7c0.5-0.4,1.2-0.1,1.2,0.5l0,0v12.2h5.2v-23.7
					C95.9,129.3,95.7,128.9,95.4,128.6z M90.7,137.8H67c-0.5,0-0.9,0.2-1.2,0.5l-1.7,1.7c-0.5,0.5-1.2,0.1-1.2-0.5v-10.5
					c0-1,0.8-1.7,1.7-1.7h24.4c1,0,1.7,0.8,1.7,1.7V137.8z"/>
			</g>
			<g>
				<path class="st0" d="M198.3,128.6l-5.9-5.9c-0.3-0.3-0.8-0.5-1.2-0.5h-23c-0.5,0-0.9,0.2-1.2,0.5l-5.9,5.9
					c-0.3,0.3-0.5,0.8-0.5,1.2v16c0,0.5,0.2,0.9,0.5,1.2l5.9,5.9c0.3,0.3,0.8,0.5,1.2,0.5h23c0.5,0,0.9-0.2,1.2-0.5l5.9-5.9
					c0.3-0.3,0.5-0.8,0.5-1.2v-16C198.8,129.4,198.6,128.9,198.3,128.6z M191.9,127.4c1,0,1.7,0.8,1.7,1.7v17.4c0,1-0.8,1.7-1.7,1.7
					h-24.4c-1,0-1.7-0.8-1.7-1.7v-17.4c0-1,0.8-1.7,1.7-1.7H191.9z"/>
			</g>
			<g>
				<g>
					<polygon class="st0" points="132.6,144.8 132,144.3 132,144.3 					"/>
					<path class="st0" d="M132.5,143.1h1c0.5,0,0.9-0.2,1.2-0.5l5.9-5.9c0.3-0.3,0.5-0.8,0.5-1.2v-5.5c0-0.5-0.2-0.9-0.5-1.2
						l-5.9-5.9c-0.3-0.3-0.8-0.5-1.2-0.5h-23c-0.5,0-0.9,0.2-1.2,0.5l-5.9,5.9c-0.3,0.3-0.5,0.8-0.5,1.2v23.7h5.2v-8.7
						c0-1,0.8-1.7,1.7-1.7l12.2,0c1.1,0,2.2,0.4,2.9,1.2l9.2,9.2h7l-9.2-9.2l0,0C131.6,143.9,131.9,143.1,132.5,143.1z M136,136.1
						c0,1-0.8,1.7-1.7,1.7h-24.4c-1,0-1.7-0.8-1.7-1.7v-7c0-1,0.8-1.7,1.7-1.7h24.4c1,0,1.7,0.8,1.7,1.7V136.1z"/>
				</g>
			</g>
			<g>
				<path class="st0" d="M37.9,132.1l-9.4-9.4c-0.3-0.3-0.8-0.5-1.2-0.5H7.7c-0.5,0-0.9,0.2-1.2,0.5l-5.9,5.9
					c-0.3,0.3-0.5,0.8-0.5,1.2v16c0,0.5,0.2,0.9,0.5,1.2l5.9,5.9c0.3,0.3,0.8,0.5,1.2,0.5h19.5c0.5,0,0.9-0.2,1.2-0.5l9.4-9.4
					c0.3-0.3,0.5-0.8,0.5-1.2l0-9C38.4,132.9,38.2,132.4,37.9,132.1z M7,148.3c-1,0-1.7-0.8-1.7-1.7v-17.4c0-1,0.8-1.7,1.7-1.7h17.7
					c0.5,0,0.9,0.2,1.2,0.5l6.7,6.7c0.3,0.3,0.5,0.8,0.5,1.2v4.8c0,0.5-0.2,0.9-0.5,1.2l-5.9,5.9c-0.3,0.3-0.8,0.5-1.2,0.5L7,148.3z
					"/>
			</g>
			<g>
				<path class="st0" d="M254.1,132.1l-9.4-9.4c-0.3-0.3-0.8-0.5-1.2-0.5H224c-0.5,0-0.9,0.2-1.2,0.5l-5.9,5.9
					c-0.3,0.3-0.5,0.8-0.5,1.2v16c0,0.5,0.2,0.9,0.5,1.2l5.9,5.9c0.3,0.3,0.8,0.5,1.2,0.5h19.5c0.5,0,0.9-0.2,1.2-0.5l9.4-9.4
					c0.3-0.3,0.5-0.8,0.5-1.2l0-9C254.7,132.9,254.5,132.4,254.1,132.1z M223.3,148.3c-1,0-1.7-0.8-1.7-1.7v-17.4
					c0-1,0.8-1.7,1.7-1.7H241c0.5,0,0.9,0.2,1.2,0.5l6.7,6.7c0.3,0.3,0.5,0.8,0.5,1.2v4.8c0,0.5-0.2,0.9-0.5,1.2l-5.9,5.9
					c-0.3,0.3-0.8,0.5-1.2,0.5L223.3,148.3z"/>
			</g>
			<g>
				<path class="st0" d="M268.6,148.3c-1,0-1.7-0.8-1.7-1.7v-4.4c0-1,0.8-1.7,1.7-1.7l0,0h16.7c0.5,0,0.9-0.2,1.2-0.5l4.7-4.7h-22.7
					c-1,0-1.7-0.8-1.7-1.7v-4.4c0-1,0.8-1.7,1.7-1.7h29.7l-4.7-4.7c-0.3-0.3-0.8-0.5-1.2-0.5h-23c-0.5,0-0.9,0.2-1.2,0.5l-5.9,5.9
					c-0.3,0.3-0.5,0.8-0.5,1.2v16c0,0.5,0.2,0.9,0.5,1.2l5.9,5.9c0.3,0.3,0.8,0.5,1.2,0.5h23c0.5,0,0.9-0.2,1.2-0.5l4.7-4.7
					L268.6,148.3L268.6,148.3z"/>
			</g>
			<g>
				<path class="st0" d="M45.3,115.2v2.8c0,0.5,0.2,0.9,0.5,1.2l1.2,1.2c1,1,1,2.5,0,3.5l-1.2,1.2c-0.3,0.3-0.5,0.8-0.5,1.2v27.2
					h5.2v-38.4H45.3z"/>
			</g>
			<g>
				<path class="st0" d="M148.3,115.2v2.8c0,0.5,0.2,0.9,0.5,1.2l1.2,1.2c1,1,1,2.5,0,3.5l-1.2,1.2c-0.3,0.3-0.5,0.8-0.5,1.2v27.2
					h5.2v-38.4H148.3z"/>
			</g>
		</g>
	</g>
	<g>
		<g>
			<polygon class="st0" points="184,19.2 184,33.1 163,54.1 142.1,61 			"/>
			<polygon class="st0" points="142.2,61.1 131.7,71.5 114.2,71.5 114.2,61.1 			"/>
			<polygon class="st0" points="152.6,40.1 142.2,50.6 114.2,50.6 114.2,40.1 			"/>
			<polygon class="st0" points="173.6,19.2 163.1,29.7 114.2,29.7 114.2,19.2 			"/>
		</g>
		<g>
			<g>
				<polygon class="st8" points="222.4,31.4 222.4,45.4 191,14 191,0 				"/>
				<polygon class="st8" points="222.4,45.4 222.4,59.3 191,90.7 191,76.8 				"/>
			</g>
			<g>
				<polygon class="st8" points="75.9,59.3 75.9,45.4 107.3,76.8 107.3,90.7 				"/>
				<polygon class="st8" points="75.9,45.4 75.9,31.4 107.3,0 107.3,14 				"/>
			</g>
		</g>
	</g>
</g>
</svg>
