<?xml version="1.0" encoding="utf-8"?>
<!-- Generator: Adobe Illustrator 28.1.0, SVG Export Plug-In . SVG Version: 6.00 Build 0)  -->
<svg version="1.1" id="Layer_1" xmlns="http://www.w3.org/2000/svg" xmlns:xlink="http://www.w3.org/1999/xlink" x="0px" y="0px"
	 viewBox="0 0 282.6 160.5" style="enable-background:new 0 0 282.6 160.5;" xml:space="preserve">
<style type="text/css">
	.st0{fill:#04043A;}
	.st1{fill:#E59900;}
	.st2{fill:#00BDD1;}
	.st3{fill:#E55A15;}
	.st4{fill:#892A0C;}
	.st5{fill:#E2173A;}
	.st6{fill:#8E631C;}
	.st7{fill:#ED247F;}
	.st8{fill:#6B1CB7;}
	.st9{fill:#5F00F4;}
	.st10{fill:#F1C911;}
	.st11{fill:#5B93B2;}
	.st12{fill:#239696;}
</style>
<g>
	<g>
		<g>
			<path class="st0" d="M129.1,132.6v-2.8c0-0.5-0.2-0.9-0.5-1.2l-6-6c-0.3-0.3-0.8-0.5-1.2-0.5h-23c-0.5,0-0.9,0.2-1.2,0.5l-6,6
				c-0.3,0.3-0.5,0.8-0.5,1.2v16c0,0.5,0.2,0.9,0.5,1.2l6,6c0.3,0.3,0.8,0.5,1.2,0.5h18.5l0,0c0.6,0,1,0.8,0.5,1.2l-0.6,0.6
				c-1.1,1.1-2.6,1.7-4.2,1.7h-7.3c-0.5,0-0.9,0.2-1.2,0.5l-3,3h13.2c0.5,0,0.9-0.2,1.2-0.5l2.5-2.5c0.3-0.3,0.5-0.8,0.5-1.2v-2.8
				h2.8c0.5,0,0.9-0.2,1.2-0.5l6-6c0.3-0.3,0.5-0.8,0.5-1.2V143l-5.2,0l0,3.5c0,1-0.8,1.7-1.7,1.7H97.7c-1,0-1.7-0.8-1.7-1.7v-17.4
				c0-0.9,0.8-1.7,1.7-1.7h24.5c0.9,0,1.7,0.8,1.7,1.7v3.5L129.1,132.6z M115.1,157L115.1,157L115.1,157L115.1,157z"/>
		</g>
		<g>
			<path class="st0" d="M282.1,125.1l-2.5-2.5c-0.3-0.3-0.8-0.5-1.2-0.5h-2.5c-0.7,0-1.3,0.4-1.6,1L262.3,150v0
				c-0.6,1.3-2.5,1.3-3.1,0h0v0l-11.9-26.9c-0.3-0.6-0.9-1-1.6-1h-2.5c-0.5,0-0.9,0.2-1.2,0.5l-2.5,2.5c-0.3,0.3-0.5,0.8-0.5,1.2
				v27.2h5.2v-22.6c0-0.2,0.2-0.2,0.3-0.1l10.2,22.6h12.2l10.2-22.6c0.1-0.1,0.3-0.1,0.3,0.1v22.6h5.2v-27.2
				C282.6,125.9,282.4,125.4,282.1,125.1z"/>
		</g>
		<g>
			<path class="st0" d="M37.9,128.6l-5.9-5.9c-0.3-0.3-0.8-0.5-1.2-0.5h-23c-0.5,0-0.9,0.2-1.2,0.5l-5.9,5.9
				c-0.3,0.3-0.5,0.8-0.5,1.2v16c0,0.5,0.2,0.9,0.5,1.2l5.9,5.9c0.3,0.3,0.8,0.5,1.2,0.5h23c0.5,0,0.9-0.2,1.2-0.5l5.9-5.9
				c0.3-0.3,0.5-0.8,0.5-1.2v-16C38.4,129.3,38.2,128.9,37.9,128.6z M31.4,127.3c1,0,1.7,0.8,1.7,1.7v17.4c0,1-0.8,1.7-1.7,1.7H7
				c-1,0-1.7-0.8-1.7-1.7v-17.4c0-1,0.8-1.7,1.7-1.7H31.4z"/>
		</g>
		<g>
			<g>
				<polygon class="st0" points="75,144.8 74.5,144.3 74.5,144.3 				"/>
				<path class="st0" d="M75,143h1c0.5,0,0.9-0.2,1.2-0.5l5.9-5.9c0.3-0.3,0.5-0.8,0.5-1.2v-5.5c0-0.5-0.2-0.9-0.5-1.2l-5.9-5.9
					c-0.3-0.3-0.8-0.5-1.2-0.5h-23c-0.5,0-0.9,0.2-1.2,0.5l-5.9,5.9c-0.3,0.3-0.5,0.8-0.5,1.2v23.7h5.2v-8.7c0-1,0.8-1.7,1.7-1.7
					l12.2,0c1.1,0,2.2,0.4,2.9,1.2l9.2,9.2h7l-9.2-9.2l0,0C74,143.8,74.4,143,75,143z M78.5,136.1c0,1-0.8,1.7-1.7,1.7H52.3
					c-1,0-1.7-0.8-1.7-1.7v-7c0-1,0.8-1.7,1.7-1.7h24.4c1,0,1.7,0.8,1.7,1.7V136.1z"/>
			</g>
		</g>
		<g>
			<path class="st0" d="M173.9,128.6l-5.9-5.9c-0.3-0.3-0.8-0.5-1.2-0.5h-23c-0.5,0-0.9,0.2-1.2,0.5l-5.9,5.9
				c-0.3,0.3-0.5,0.8-0.5,1.2v23.7h5.2V143H165c0.5,0,0.9-0.2,1.2-0.5l1.7-1.7c0.5-0.4,1.2-0.1,1.2,0.5l0,0v12.2h5.2v-23.7
				C174.4,129.3,174.3,128.9,173.9,128.6z M145.5,137.8c-0.5,0-0.9,0.2-1.2,0.5l-1.7,1.7c-0.5,0.5-1.2,0.1-1.2-0.5v-10.5
				c0-1,0.8-1.7,1.7-1.7h24.4c1,0,1.7,0.8,1.7,1.7v8.7H145.5z"/>
		</g>
		<g>
			<path class="st0" d="M219.3,139l-3-3v-6.2c0-0.5-0.2-0.9-0.5-1.2l-5.9-5.9c-0.3-0.3-0.8-0.5-1.2-0.5h-19.5
				c-0.5,0-0.9,0.2-1.2,0.5l-5.9,5.9c-0.3,0.3-0.5,0.8-0.5,1.2v16c0,0.5,0.2,0.9,0.5,1.2l5.9,5.9c0.3,0.3,0.8,0.5,1.2,0.5l23,0
				c0.5,0,0.9-0.2,1.2-0.5l5.9-5.9c0.3-0.3,0.5-0.8,0.5-1.2v-5.5C219.8,139.8,219.6,139.4,219.3,139z M214.6,146.5
				c0,1-0.8,1.7-1.7,1.7l0,0h-24.4l0,0c-1,0-1.7-0.8-1.7-1.7v-4.4c0-1,0.8-1.7,1.7-1.7l0,0h24.4l0,0c1,0,1.7,0.8,1.7,1.7l0,0
				L214.6,146.5L214.6,146.5z M211.1,133.4c0,1-0.8,1.7-1.7,1.7h-21c-1,0-1.7-0.8-1.7-1.7v-4.4c0-1,0.8-1.7,1.7-1.7l0,0h20.9l0,0
				c1,0,1.7,0.8,1.7,1.7l0,0L211.1,133.4L211.1,133.4z"/>
		</g>
		<g>
			<path class="st0" d="M226.8,115.1v2.8c0,0.5,0.2,0.9,0.5,1.2l1.2,1.2c1,1,1,2.5,0,3.5l-1.2,1.2c-0.3,0.3-0.5,0.8-0.5,1.2v27.2
				h5.2v-38.4H226.8z"/>
		</g>
	</g>
	<g>
		<g>
			<polygon class="st3" points="214.6,31.4 214.6,45.4 183.2,14 183.2,0 			"/>
			<polygon class="st3" points="214.6,45.4 214.6,59.3 183.2,90.7 183.2,76.8 			"/>
		</g>
		<g>
			<polygon class="st3" points="68,59.3 68,45.4 99.4,76.8 99.4,90.7 			"/>
			<polygon class="st3" points="68,45.4 68,31.4 99.4,0 99.4,14 			"/>
		</g>
		<g>
			<polygon class="st0" points="127.3,24.4 155.2,24.4 165.7,14 127.3,14 116.9,24.4 116.9,40.1 127.3,29.7 			"/>
			<polygon class="st0" points="155.2,66.2 127.3,66.2 116.8,76.7 155.2,76.7 165.7,66.2 165.7,66.2 165.7,50.5 155.2,61 			"/>
			<polygon class="st0" points="165.7,24.4 155.2,34.9 155.2,40.1 127.3,40.1 116.9,50.6 116.9,66.3 127.3,55.8 127.3,50.6 
				155.2,50.6 165.7,40.1 165.7,40.1 			"/>
		</g>
	</g>
</g>
</svg>
