<?xml version="1.0" encoding="utf-8"?>
<!-- Generator: Adobe Illustrator 28.1.0, SVG Export Plug-In . SVG Version: 6.00 Build 0)  -->
<svg version="1.1" id="Layer_1" xmlns="http://www.w3.org/2000/svg" xmlns:xlink="http://www.w3.org/1999/xlink" x="0px" y="0px"
	 viewBox="0 0 315.7 198.9" style="enable-background:new 0 0 315.7 198.9;" xml:space="preserve">
<style type="text/css">
	.st0{fill:#04043A;}
	.st1{fill:#E59900;}
	.st2{fill:#00BDD1;}
	.st3{fill:#E55A15;}
	.st4{fill:#892A0C;}
	.st5{fill:#E2173A;}
	.st6{fill:#8E631C;}
	.st7{fill:#ED247F;}
	.st8{fill:#6B1CB7;}
	.st9{fill:#5F00F4;}
	.st10{fill:#F1C911;}
	.st11{fill:#5B93B2;}
	.st12{fill:#239696;}
</style>
<g>
	<g>
		<g>
			<g>
				<path class="st0" d="M315.7,177.9v-2.8c0-0.5-0.2-0.9-0.5-1.2l-5.9-5.9c-0.3-0.3-0.8-0.5-1.2-0.5h-23c-0.5,0-0.9,0.2-1.2,0.5
					l-5.9,5.9c-0.3,0.3-0.5,0.8-0.5,1.2v2c0,0.5,0.2,0.9,0.5,1.2l6.8,6.8c0.3,0.3,0.8,0.5,1.2,0.5l22.8,0c1,0,1.7,0.8,1.7,1.7v4.4
					c0,0.9-0.8,1.7-1.7,1.7l-24.5,0c-1,0-1.7-0.8-1.7-1.7v-3.5l-5.2,0v2.8c0,0.5,0.2,0.9,0.5,1.2l5.9,5.9c0.3,0.3,0.8,0.5,1.2,0.5
					h23c0.5,0,0.9-0.2,1.2-0.5l5.9-5.9c0.3-0.3,0.5-0.8,0.5-1.2v-2c0-0.5-0.2-0.9-0.5-1.2l-6.8-6.8c-0.3-0.3-0.8-0.5-1.2-0.5
					l-22.8,0c-1,0-1.7-0.8-1.7-1.7v-4.4c0-1,0.8-1.7,1.7-1.7h24.4c1,0,1.7,0.8,1.7,1.7v3.5L315.7,177.9z"/>
			</g>
			<g>
				<path class="st0" d="M133.8,173.9l-5.9-5.9c-0.3-0.3-0.8-0.5-1.2-0.5h-23c-0.5,0-0.9,0.2-1.2,0.5l-5.9,5.9
					c-0.3,0.3-0.5,0.8-0.5,1.2v16c0,0.5,0.2,0.9,0.5,1.2l5.9,5.9c0.3,0.3,0.8,0.5,1.2,0.5h23c0.5,0,0.9-0.2,1.2-0.5l5.9-5.9
					c0.3-0.3,0.5-0.8,0.5-1.2v-16C134.3,174.7,134.1,174.3,133.8,173.9z M127.3,172.7c1,0,1.7,0.8,1.7,1.7v17.4c0,1-0.8,1.7-1.7,1.7
					h-24.4c-1,0-1.7-0.8-1.7-1.7v-17.4c0-1,0.8-1.7,1.7-1.7H127.3z"/>
			</g>
			<g>
				<g>
					<polygon class="st0" points="216.3,190.2 215.8,189.6 215.8,189.6 					"/>
					<path class="st0" d="M216.3,188.4h1c0.5,0,0.9-0.2,1.2-0.5l5.9-5.9c0.3-0.3,0.5-0.8,0.5-1.2v-5.5c0-0.5-0.2-0.9-0.5-1.2
						l-5.9-5.9c-0.3-0.3-0.8-0.5-1.2-0.5h-23c-0.5,0-0.9,0.2-1.2,0.5l-5.9,5.9c-0.3,0.3-0.5,0.8-0.5,1.2v23.7h5.2v-8.7
						c0-1,0.8-1.7,1.7-1.7l12.2,0c1.1,0,2.2,0.4,2.9,1.2l9.2,9.2h7l-9.2-9.2l0,0C215.3,189.2,215.7,188.4,216.3,188.4z M219.8,181.4
						c0,1-0.8,1.7-1.7,1.7h-24.4c-1,0-1.7-0.8-1.7-1.7v-7c0-1,0.8-1.7,1.7-1.7H218c1,0,1.7,0.8,1.7,1.7V181.4z"/>
				</g>
			</g>
			<g>
				<path class="st0" d="M269.9,173.9l-5.9-5.9c-0.3-0.3-0.8-0.5-1.2-0.5h-23c-0.5,0-0.9,0.2-1.2,0.5l-5.9,5.9
					c-0.3,0.3-0.5,0.8-0.5,1.2v23.7h5.2v-10.5h23.7c0.5,0,0.9-0.2,1.2-0.5l1.7-1.7c0.5-0.4,1.2-0.1,1.2,0.5l0,0v12.2h5.2v-23.7
					C270.4,174.7,270.2,174.3,269.9,173.9z M241.5,183.2c-0.5,0-0.9,0.2-1.2,0.5l-1.7,1.7c-0.5,0.5-1.2,0.1-1.2-0.5v-10.5
					c0-1,0.8-1.7,1.7-1.7h24.4c1,0,1.7,0.8,1.7,1.7v8.7H241.5z"/>
			</g>
			<g>
				<path class="st0" d="M179.2,184.4l-3-3v-6.2c0-0.5-0.2-0.9-0.5-1.2l-5.9-5.9c-0.3-0.3-0.8-0.5-1.2-0.5H149
					c-0.5,0-0.9,0.2-1.2,0.5l-5.9,5.9c-0.3,0.3-0.5,0.8-0.5,1.2v16c0,0.5,0.2,0.9,0.5,1.2l5.9,5.9c0.3,0.3,0.8,0.5,1.2,0.5l23,0
					c0.5,0,0.9-0.2,1.2-0.5l5.9-5.9c0.3-0.3,0.5-0.8,0.5-1.2v-5.5C179.7,185.2,179.5,184.7,179.2,184.4z M174.4,191.9
					c0,1-0.8,1.7-1.7,1.7l0,0h-24.4l0,0c-1,0-1.7-0.8-1.7-1.7v-4.4c0-1,0.8-1.7,1.7-1.7l0,0h24.4l0,0c1,0,1.7,0.8,1.7,1.7l0,0
					L174.4,191.9L174.4,191.9z M171,178.8c0,1-0.8,1.7-1.7,1.7h-21c-1,0-1.7-0.8-1.7-1.7v-4.4c0-1,0.8-1.7,1.7-1.7l0,0h20.9l0,0
					c1,0,1.7,0.8,1.7,1.7l0,0L171,178.8L171,178.8z"/>
			</g>
			<g>
				<path class="st0" d="M37.9,177.4l-9.4-9.4c-0.3-0.3-0.8-0.5-1.2-0.5H7.7c-0.5,0-0.9,0.2-1.2,0.5l-5.9,5.9
					c-0.3,0.3-0.5,0.8-0.5,1.2v16c0,0.5,0.2,0.9,0.5,1.2l5.9,5.9c0.3,0.3,0.8,0.5,1.2,0.5h19.5c0.5,0,0.9-0.2,1.2-0.5l9.4-9.4
					c0.3-0.3,0.5-0.8,0.5-1.2l0-9C38.4,178.2,38.2,177.8,37.9,177.4z M7,193.6c-1,0-1.7-0.8-1.7-1.7v-17.4c0-1,0.8-1.7,1.7-1.7h17.7
					c0.5,0,0.9,0.2,1.2,0.5l6.7,6.7c0.3,0.3,0.5,0.8,0.5,1.2v4.8c0,0.5-0.2,0.9-0.5,1.2l-5.9,5.9c-0.3,0.3-0.8,0.5-1.2,0.5L7,193.6z
					"/>
			</g>
			<g>
				<path class="st0" d="M52.3,193.6c-1,0-1.7-0.8-1.7-1.7v-4.4c0-1,0.8-1.7,1.7-1.7l0,0H69c0.5,0,0.9-0.2,1.2-0.5l4.7-4.7H52.3
					c-1,0-1.7-0.8-1.7-1.7v-4.4c0-1,0.8-1.7,1.7-1.7H82l-4.7-4.7c-0.3-0.3-0.8-0.5-1.2-0.5h-23c-0.5,0-0.9,0.2-1.2,0.5l-5.9,5.9
					c-0.3,0.3-0.5,0.8-0.5,1.2v16c0,0.5,0.2,0.9,0.5,1.2l5.9,5.9c0.3,0.3,0.8,0.5,1.2,0.5h23c0.5,0,0.9-0.2,1.2-0.5l4.7-4.7
					L52.3,193.6L52.3,193.6z"/>
			</g>
		</g>
		<g>
			<g>
				<path class="st0" d="M205.8,132.6v-2.8c0-0.5-0.2-0.9-0.5-1.2l-6-6c-0.3-0.3-0.8-0.5-1.2-0.5h-23c-0.5,0-0.9,0.2-1.2,0.5l-6,6
					c-0.3,0.3-0.5,0.8-0.5,1.2v16c0,0.5,0.2,0.9,0.5,1.2l6,6c0.3,0.3,0.8,0.5,1.2,0.5h18.5l0,0c0.6,0,1,0.8,0.5,1.2l-0.6,0.6
					c-1.1,1.1-2.6,1.7-4.2,1.7h-7.3c-0.5,0-0.9,0.2-1.2,0.5l-3,3h13.2c0.5,0,0.9-0.2,1.2-0.5l2.5-2.5c0.3-0.3,0.5-0.8,0.5-1.2v-2.8
					h2.8c0.5,0,0.9-0.2,1.2-0.5l6-6c0.3-0.3,0.5-0.8,0.5-1.2v-2.8l-5.2,0l0,3.5c0,1-0.8,1.7-1.7,1.7h-24.4c-1,0-1.7-0.8-1.7-1.7
					v-17.4c0-0.9,0.8-1.7,1.7-1.7h24.5c0.9,0,1.7,0.8,1.7,1.7v3.5L205.8,132.6z M191.9,157L191.9,157L191.9,157L191.9,157z"/>
			</g>
			<g>
				<path class="st0" d="M62.3,125.1l-2.5-2.5c-0.3-0.3-0.8-0.5-1.2-0.5h-2.5c-0.7,0-1.3,0.4-1.6,1L42.5,150v0
					c-0.6,1.3-2.5,1.3-3.1,0h0v0l-11.9-26.9c-0.3-0.6-0.9-1-1.6-1h-2.5c-0.5,0-0.9,0.2-1.2,0.5l-2.5,2.5c-0.3,0.3-0.5,0.8-0.5,1.2
					v27.2h5.2v-22.6c0-0.2,0.2-0.2,0.3-0.1l10.2,22.6h12.2l10.2-22.6c0.1-0.1,0.3-0.1,0.3,0.1v22.6h5.2v-27.2
					C62.8,125.9,62.6,125.4,62.3,125.1z"/>
			</g>
			<g>
				<path class="st0" d="M296,128.6l-5.9-5.9c-0.3-0.3-0.8-0.5-1.2-0.5h-23c-0.5,0-0.9,0.2-1.2,0.5l-5.9,5.9
					c-0.3,0.3-0.5,0.8-0.5,1.2v16c0,0.5,0.2,0.9,0.5,1.2l5.9,5.9c0.3,0.3,0.8,0.5,1.2,0.5h23c0.5,0,0.9-0.2,1.2-0.5l5.9-5.9
					c0.3-0.3,0.5-0.8,0.5-1.2v-16C296.5,129.4,296.4,128.9,296,128.6z M289.6,127.4c1,0,1.7,0.8,1.7,1.7v17.4c0,1-0.8,1.7-1.7,1.7
					h-24.4c-1,0-1.7-0.8-1.7-1.7v-17.4c0-1,0.8-1.7,1.7-1.7H289.6z"/>
			</g>
			<g>
				<g>
					<path class="st0" d="M250.7,128.6l-5.9-5.9c-0.3-0.3-0.8-0.5-1.2-0.5h-23c-0.5,0-0.9,0.2-1.2,0.5l-5.9,5.9
						c-0.3,0.3-0.5,0.8-0.5,1.2v23.7h5.2v-10.5h23.7c0.5,0,0.9-0.2,1.2-0.5l1.7-1.7c0.5-0.4,1.2-0.1,1.2,0.5l0,0v12.2h5.2v-23.7
						C251.2,129.4,251,128.9,250.7,128.6z M246,137.8h-23.7c-0.5,0-0.9,0.2-1.2,0.5l-1.7,1.7c-0.5,0.5-1.2,0.1-1.2-0.5v-10.5
						c0-1,0.8-1.7,1.7-1.7h24.4c1,0,1.7,0.8,1.7,1.7V137.8z"/>
					<path class="st0" d="M232.5,119.1l0.7,0.7c0.3,0.3,0.8,0.5,1.2,0.5h3.8c0.5,0,0.9-0.2,1.2-0.5l3-3h-9.7c-0.5,0-0.9-0.2-1.2-0.5
						l-0.7-0.7c-0.3-0.3-0.8-0.5-1.2-0.5h-3.8c-0.5,0-0.9,0.2-1.2,0.5l-3,3h9.7C231.7,118.6,232.2,118.8,232.5,119.1z"/>
				</g>
			</g>
			<g>
				<path class="st0" d="M147.8,132.1l-9.4-9.4c-0.3-0.3-0.8-0.5-1.2-0.5h-19.5c-0.5,0-0.9,0.2-1.2,0.5l-5.9,5.9
					c-0.3,0.3-0.5,0.8-0.5,1.2v16c0,0.5,0.2,0.9,0.5,1.2l5.9,5.9c0.3,0.3,0.8,0.5,1.2,0.5h19.5c0.5,0,0.9-0.2,1.2-0.5l9.4-9.4
					c0.3-0.3,0.5-0.8,0.5-1.2l0-9C148.3,132.9,148.1,132.4,147.8,132.1z M116.9,148.3c-1,0-1.7-0.8-1.7-1.7v-17.4
					c0-1,0.8-1.7,1.7-1.7h17.7c0.5,0,0.9,0.2,1.2,0.5l6.7,6.7c0.3,0.3,0.5,0.8,0.5,1.2v4.8c0,0.5-0.2,0.9-0.5,1.2l-5.9,5.9
					c-0.3,0.3-0.8,0.5-1.2,0.5L116.9,148.3z"/>
			</g>
			<g>
				<path class="st0" d="M76.8,148.3c-1,0-1.7-0.8-1.7-1.7v-4.4c0-1,0.8-1.7,1.7-1.7l0,0h16.7c0.5,0,0.9-0.2,1.2-0.5l4.7-4.7H76.8
					c-1,0-1.7-0.8-1.7-1.7v-4.4c0-1,0.8-1.7,1.7-1.7h29.7l-4.7-4.7c-0.3-0.3-0.8-0.5-1.2-0.5h-23c-0.5,0-0.9,0.2-1.2,0.5l-5.9,5.9
					c-0.3,0.3-0.5,0.8-0.5,1.2v16c0,0.5,0.2,0.9,0.5,1.2l5.9,5.9c0.3,0.3,0.8,0.5,1.2,0.5h23c0.5,0,0.9-0.2,1.2-0.5l4.7-4.7
					L76.8,148.3L76.8,148.3z"/>
			</g>
			<g>
				<path class="st0" d="M155.3,115.1v2.8c0,0.5,0.2,0.9,0.5,1.2l1.2,1.2c1,1,1,2.5,0,3.5l-1.2,1.2c-0.3,0.3-0.5,0.8-0.5,1.2v27.2
					h5.2v-38.4H155.3z"/>
			</g>
		</g>
	</g>
	<g>
		<polygon class="st0" points="184,24.4 131.7,24.4 121.2,34.9 121.2,66.3 131.7,66.3 131.7,34.9 142.2,34.9 142.2,52.3 152.6,52.3 
			152.6,34.9 163.1,34.9 163.1,66.3 173.6,66.3 173.6,34.9 184,34.9 184,52.3 194.5,52.3 194.5,34.9 		"/>
		<g>
			<g>
				<polygon class="st6" points="231.1,31.4 231.1,45.4 199.7,14 199.7,0 				"/>
				<polygon class="st6" points="231.1,45.4 231.1,59.3 199.7,90.7 199.7,76.8 				"/>
			</g>
			<g>
				<polygon class="st6" points="84.6,59.3 84.6,45.4 116,76.8 116,90.7 				"/>
				<polygon class="st6" points="84.6,45.4 84.6,31.4 116,0 116,14 				"/>
			</g>
		</g>
	</g>
</g>
</svg>
