<?xml version="1.0" encoding="UTF-8"?>
<svg id="Camada_2" data-name="Camada 2" xmlns="http://www.w3.org/2000/svg" viewBox="0 0 370.69 160.5">
  <defs>
    <style>
      .cls-1 {
        fill: #04043a;
      }

      .cls-1, .cls-2 {
        stroke-width: 0px;
      }

      .cls-2 {
        fill: #8e631c;
      }
    </style>
  </defs>
  <g id="Layer_1" data-name="Layer 1">
    <g>
      <g>
        <polygon class="cls-1" points="211.51 24.42 159.18 24.42 148.71 34.88 148.71 66.29 159.18 66.29 159.18 34.89 169.64 34.89 169.64 52.33 180.11 52.32 180.11 34.89 190.57 34.89 190.57 66.29 201.04 66.29 201.04 34.89 211.51 34.89 211.51 52.32 221.98 52.33 221.98 34.88 211.51 24.42"/>
        <g>
          <g>
            <polygon class="cls-2" points="258.61 31.4 258.61 45.35 227.21 13.96 227.21 0 258.61 31.4"/>
            <polygon class="cls-2" points="258.61 45.35 258.61 59.31 227.21 90.71 227.21 76.75 258.61 45.35"/>
          </g>
          <g>
            <polygon class="cls-2" points="112.08 59.31 112.08 45.36 143.48 76.75 143.48 90.71 112.08 59.31"/>
            <polygon class="cls-2" points="112.08 45.36 112.08 31.4 143.48 0 143.48 13.96 112.08 45.36"/>
          </g>
        </g>
      </g>
      <g>
        <g>
          <path class="cls-1" d="M279.98,132.59v-2.77c0-.46-.18-.91-.51-1.23l-5.96-5.95c-.33-.33-.77-.51-1.23-.51h-22.98c-.46,0-.91.18-1.23.51l-5.95,5.95c-.33.33-.51.77-.51,1.23v16c0,.46.18.91.51,1.23l5.96,5.96c.33.33.77.51,1.23.51h18.47c.64,0,.96.77.52,1.22l-.56.56c-1.11,1.09-2.61,1.71-4.18,1.71h-7.28c-.46,0-.91.18-1.23.51l-2.98,2.98h13.23c.46,0,.91-.18,1.23-.51l2.47-2.47c.33-.33.51-.77.51-1.23v-2.77h2.77c.46,0,.91-.18,1.23-.51l5.95-5.95c.33-.33.51-.77.51-1.23v-2.77h-5.23s0,3.49,0,3.49c0,.96-.78,1.74-1.74,1.74h-24.42c-.96,0-1.74-.78-1.74-1.74v-17.44c0-.94.75-1.71,1.69-1.74h24.53c.93.03,1.67.78,1.69,1.7v3.53h5.23ZM266.02,157.01l.03-.03-.03.03h0Z"/>
          <path class="cls-1" d="M136.43,125.1l-2.46-2.46c-.33-.33-.78-.52-1.24-.52h-2.49c-.7,0-1.33.41-1.61,1.04l-11.94,26.87h0c-.6,1.34-2.5,1.34-3.1,0h0s-11.94-26.87-11.94-26.87c-.28-.64-.91-1.04-1.61-1.04h-2.49c-.47,0-.91.19-1.24.52l-2.46,2.46c-.33.33-.52.78-.52,1.24v27.18h5.23v-22.58c0-.15.21-.2.27-.06l10.2,22.64h12.21l10.2-22.64c.06-.14.27-.09.27.06v22.58h5.23v-27.18c0-.47-.19-.91-.52-1.24Z"/>
          <path class="cls-1" d="M370.18,128.59l-5.95-5.95c-.33-.33-.78-.52-1.24-.52h-22.96c-.47,0-.91.19-1.24.52l-5.95,5.95c-.33.33-.52.78-.52,1.24v15.99c0,.47.19.91.52,1.24l5.95,5.95c.33.33.78.52,1.24.52h22.96c.47,0,.91-.19,1.24-.52l5.95-5.95c.33-.33.52-.78.52-1.24v-15.99c0-.47-.19-.91-.52-1.24ZM363.71,127.36c.96,0,1.74.78,1.74,1.74v17.44c0,.96-.78,1.74-1.74,1.74h-24.42c-.96,0-1.74-.78-1.74-1.74v-17.44c0-.96.78-1.74,1.74-1.74h24.42Z"/>
          <g>
            <path class="cls-1" d="M324.82,128.59l-5.95-5.95c-.33-.33-.78-.52-1.24-.52h-22.97c-.47,0-.91.19-1.24.52l-5.95,5.95c-.33.33-.52.78-.52,1.24v23.69h5.23v-10.47h23.69c.47,0,.91-.19,1.24-.52l1.74-1.74c.46-.45,1.23-.13,1.23.52h0s0,12.21,0,12.21h5.23v-23.69c0-.47-.19-.91-.52-1.24ZM320.1,137.82h-23.69c-.47,0-.91.19-1.24.52l-1.74,1.74c-.46.45-1.23.13-1.23-.51v-10.47c0-.96.78-1.74,1.74-1.74h24.42c.96,0,1.74.78,1.74,1.74v8.72Z"/>
            <path class="cls-1" d="M306.66,119.15l.71.71c.33.33.78.52,1.24.52h3.78c.47,0,.91-.19,1.24-.52l2.97-2.97h-9.74c-.47,0-.91-.19-1.24-.52l-.71-.71c-.33-.33-.78-.52-1.24-.52h-3.78c-.47,0-.91.19-1.24.52l-2.97,2.97h9.74c.47,0,.91.19,1.24.52Z"/>
          </g>
          <path class="cls-1" d="M221.92,132.07l-9.44-9.44c-.33-.33-.78-.52-1.24-.52h-19.48c-.47,0-.91.19-1.24.52l-5.95,5.95c-.33.33-.52.78-.52,1.24v15.99c0,.47.19.91.52,1.24l5.95,5.95c.33.33.78.52,1.24.52h19.48c.47,0,.91-.19,1.24-.52l9.43-9.44c.33-.33.52-.78.52-1.24v-9.01c0-.47-.19-.91-.52-1.24ZM191.03,148.29c-.96,0-1.74-.78-1.74-1.74v-17.44c0-.96.78-1.74,1.74-1.74h17.74c.47,0,.91.19,1.24.52l6.67,6.67c.33.33.52.78.52,1.24v4.8c0,.47-.19.91-.52,1.24l-5.95,5.95c-.33.33-.78.52-1.24.52h-18.46Z"/>
          <path class="cls-1" d="M150.9,148.29c-.96,0-1.74-.78-1.74-1.74v-4.36c0-.96.78-1.74,1.74-1.74h0s16.72,0,16.72,0c.47,0,.91-.19,1.24-.52l4.72-4.72h-22.68c-.96,0-1.74-.78-1.74-1.74v-4.36c0-.96.78-1.74,1.74-1.74h29.66l-4.72-4.72c-.33-.33-.78-.52-1.24-.52h-22.97c-.47,0-.91.19-1.24.52l-5.95,5.95c-.33.33-.52.78-.52,1.24v15.99c0,.47.19.91.52,1.24l5.95,5.95c.33.33.78.52,1.24.52h22.97c.47,0,.91-.19,1.24-.52l4.72-4.72h-29.67.01Z"/>
          <path class="cls-1" d="M229.4,115.15v2.76c0,.47.19.91.52,1.24l1.23,1.23c.95.96.96,2.51,0,3.47l-1.24,1.24c-.33.33-.52.78-.52,1.24v27.18h5.22v-38.38h-5.22Z"/>
        </g>
        <g>
          <path class="cls-1" d="M37.86,128.58l-5.95-5.95c-.33-.33-.78-.52-1.24-.52H7.71c-.47,0-.91.19-1.24.52l-5.95,5.95c-.33.33-.52.78-.52,1.24v15.99c0,.47.19.91.52,1.24l5.95,5.95c.33.33.78.52,1.24.52h22.96c.47,0,.91-.19,1.24-.52l5.95-5.95c.33-.33.52-.78.52-1.24v-15.99c0-.47-.19-.91-.52-1.24ZM31.4,127.36c.96,0,1.74.78,1.74,1.74v17.44c0,.96-.78,1.74-1.74,1.74H6.98c-.96,0-1.74-.78-1.74-1.74v-17.44c0-.96.78-1.74,1.74-1.74h24.42Z"/>
          <path class="cls-1" d="M50.59,136.08v-6.98c0-.96.78-1.74,1.74-1.74h29.66l-4.72-4.72c-.33-.33-.78-.52-1.24-.52h-22.97c-.47,0-.91.19-1.24.52l-5.95,5.95c-.33.33-.52.78-.52,1.24v23.69h5.23v-8.72c0-.96.78-1.74,1.74-1.74h16.72c.47,0,.91-.19,1.24-.52l4.72-4.72h-22.68c-.96,0-1.74-.78-1.74-1.74Z"/>
        </g>
      </g>
    </g>
  </g>
</svg>