<?xml version="1.0" encoding="UTF-8"?><svg id="a" xmlns="http://www.w3.org/2000/svg" viewBox="0 0 282.59 184.23"><defs><style>.b{fill:#e55a15;}.b,.c{stroke-width:0px;}.c{fill:#04043a;}</style></defs><path class="b" d="M87.38,175.6l-2.06-2.06c-.11-.11-.27-.18-.43-.18h-7.95c-.16,0-.32.06-.43.18l-2.06,2.06c-.11.11-.18.27-.18.43v8.2h1.81v-2.42c0-.33.27-.6.6-.6h8.2c.16,0,.32-.06.43-.18l2.06-2.06c.11-.11.18-.27.18-.43v-2.51c0-.16-.06-.32-.18-.43ZM85.16,179.4h-8.47c-.33,0-.6-.27-.6-.6v-3.02c0-.33.27-.6.6-.6h8.45c.33,0,.6.27.6.6v3.02c0,.33-.26.59-.58.6Z"/><polygon class="b" points="115.94 181.21 115.76 181.04 115.76 181.04 115.94 181.21"/><path class="b" d="M115.93,180.61h.36c.16,0,.32-.06.43-.18l2.06-2.06c.11-.11.18-.27.18-.43v-1.91c0-.16-.06-.32-.18-.43l-2.06-2.06c-.11-.11-.27-.18-.43-.18h-7.95c-.16,0-.32.06-.43.18l-2.06,2.06c-.11.11-.18.27-.18.43v8.2h1.81v-3.02c0-.33.27-.6.6-.6h4.23c.38,0,.75.15,1.02.42l3.2,3.2h2.41l-3.2-3.2h0c-.16-.16-.05-.42.17-.43ZM117.14,178.2c0,.33-.27.6-.6.6h-8.45c-.33,0-.6-.27-.6-.6v-2.42c0-.33.27-.6.6-.6h8.45c.33,0,.6.27.6.6v2.42Z"/><path class="b" d="M103.08,175.6l-2.06-2.06c-.11-.11-.27-.18-.43-.18h-7.95c-.16,0-.32.06-.43.18l-2.06,2.06c-.11.11-.18.27-.18.43v8.2h1.81v-3.62h8.2c.16,0,.32-.06.43-.18l.6-.6c.16-.16.43-.04.43.18h0s0,4.23,0,4.23h1.81v-8.2c0-.16-.06-.32-.18-.43ZM93.24,178.8c-.16,0-.32.06-.43.18l-.6.6c-.16.16-.43.05-.43-.18v-3.62c0-.33.27-.6.6-.6h8.45c.33,0,.6.27.6.6v3.02h-8.2Z"/><path class="b" d="M134.48,175.6l-2.06-2.06c-.11-.11-.27-.18-.43-.18h-7.95c-.16,0-.32.06-.43.18l-2.06,2.06c-.11.11-.18.27-.18.43v8.2h1.81v-3.62h8.2c.16,0,.32-.06.43-.18l.6-.6c.16-.16.43-.04.43.18h0s0,4.23,0,4.23h1.81v-8.2c0-.16-.06-.32-.18-.43ZM124.64,178.8c-.16,0-.32.06-.43.18l-.6.6c-.16.16-.43.05-.43-.18v-3.62c0-.33.27-.6.6-.6h8.45c.33,0,.6.27.6.6v3.02h-8.2Z"/><path class="b" d="M206.68,173.54c-.11-.11-.27-.18-.43-.18h-10.36c-.16,0-.32.06-.43.18l-1.63,1.63h5.74c.33,0,.6.27.6.6v8.46h1.81v-8.46c0-.33.27-.6.6-.6h5.74l-1.63-1.63Z"/><path class="b" d="M185.46,173.36c-.24,0-.45.14-.55.35l-4.4,9.31c-.23.48-.91.48-1.14,0l-4.4-9.31c-.1-.21-.32-.35-.55-.35h-1.73l5.13,10.87h4.23l5.13-10.87h-1.73Z"/><polygon class="b" points="153.37 181.21 153.2 181.04 153.2 181.04 153.37 181.21"/><path class="b" d="M153.37,180.61h.36c.16,0,.32-.06.43-.18l2.06-2.06c.11-.11.18-.27.18-.43v-1.91c0-.16-.06-.32-.18-.43l-2.06-2.06c-.11-.11-.27-.18-.43-.18h-7.95c-.16,0-.32.06-.43.18l-2.06,2.06c-.11.11-.18.27-.18.43v8.2h1.81v-3.02c0-.33.27-.6.6-.6h4.23c.38,0,.75.15,1.02.42l3.2,3.2h2.41l-3.2-3.2h0c-.16-.16-.05-.42.17-.43ZM154.58,178.2c0,.33-.27.6-.6.6h-8.45c-.33,0-.6-.27-.6-.6v-2.42c0-.33.27-.6.6-.6h8.45c.33,0,.6.27.6.6v2.42Z"/><path class="b" d="M161.22,182.42c-.33,0-.6-.27-.6-.6v-1.51c0-.33.27-.6.6-.6h0s5.79,0,5.79,0c.16,0,.32-.06.43-.18l1.63-1.63h-7.85c-.33,0-.6-.27-.6-.6v-1.51c0-.33.27-.6.6-.6h10.27l-1.63-1.63c-.11-.11-.27-.18-.43-.18h-7.95c-.16,0-.32.06-.43.18l-2.06,2.06c-.11.11-.18.27-.18.43v5.53c0,.16.06.32.18.43l2.06,2.06c.11.11.27.18.43.18h7.95c.16,0,.32-.06.43-.18l1.63-1.63h-10.27,0Z"/><path class="b" d="M189.6,170.95v.96c0,.16.06.32.18.43l.43.43c.33.33.33.87,0,1.2l-.43.43c-.11.11-.18.27-.18.43v9.41h1.81v-13.28h-1.81Z"/><path class="c" d="M129.09,132.57v-2.77c0-.46-.18-.91-.51-1.23l-5.96-5.95c-.33-.33-.77-.51-1.23-.51h-22.98c-.46,0-.91.18-1.23.51l-5.95,5.95c-.33.33-.51.77-.51,1.23v16c0,.46.18.91.51,1.23l5.96,5.96c.33.33.77.51,1.23.51h18.47c.64,0,.96.77.52,1.22l-.56.56c-1.11,1.09-2.61,1.71-4.18,1.71h-7.28c-.46,0-.91.18-1.23.51l-2.98,2.98h13.23c.46,0,.91-.18,1.23-.51l2.47-2.47c.33-.33.51-.77.51-1.23v-2.77h2.77c.46,0,.91-.18,1.23-.51l5.95-5.95c.33-.33.51-.77.51-1.23v-2.77h-5.23s0,3.49,0,3.49c0,.96-.78,1.74-1.74,1.74h-24.42c-.96,0-1.74-.78-1.74-1.74v-17.44c0-.94.75-1.71,1.69-1.74h24.53c.93.03,1.67.78,1.69,1.7v3.53h5.23ZM115.13,156.99l.03-.03-.03.03h0Z"/><path class="c" d="M282.08,125.08l-2.46-2.46c-.33-.33-.78-.52-1.24-.52h-2.49c-.7,0-1.33.41-1.61,1.04l-11.94,26.87h0c-.6,1.34-2.5,1.34-3.1,0h0s-11.94-26.87-11.94-26.87c-.28-.64-.91-1.04-1.61-1.04h-2.49c-.47,0-.91.19-1.24.52l-2.46,2.46c-.33.33-.52.78-.52,1.24v27.18h5.23v-22.58c0-.15.21-.2.27-.06l10.2,22.64h12.21l10.2-22.64c.06-.14.27-.09.27.06v22.58h5.23v-27.18c0-.47-.19-.91-.52-1.24Z"/><path class="c" d="M37.86,128.57l-5.95-5.95c-.33-.33-.78-.52-1.24-.52H7.71c-.47,0-.91.19-1.24.52l-5.95,5.95c-.33.33-.52.78-.52,1.24v15.99c0,.47.19.91.52,1.24l5.95,5.95c.33.33.78.52,1.24.52h22.96c.47,0,.91-.19,1.24-.52l5.95-5.95c.33-.33.52-.78.52-1.24v-15.99c0-.47-.19-.91-.52-1.24ZM31.4,127.34c.96,0,1.74.78,1.74,1.74v17.44c0,.96-.78,1.74-1.74,1.74H6.98c-.96,0-1.74-.78-1.74-1.74v-17.44c0-.96.78-1.74,1.74-1.74h24.42Z"/><polygon class="c" points="75.01 144.79 74.5 144.27 74.5 144.27 75.01 144.79"/><path class="c" d="M75,143.04h1.03c.47,0,.91-.19,1.24-.52l5.95-5.95c.33-.33.52-.78.52-1.24v-5.52c0-.47-.19-.91-.52-1.24l-5.95-5.95c-.33-.33-.78-.52-1.24-.52h-22.96c-.47,0-.91.19-1.24.52l-5.95,5.95c-.33.33-.52.78-.52,1.24v23.69h5.23v-8.72c0-.96.78-1.74,1.74-1.74h12.23c1.11,0,2.16.44,2.95,1.22l9.24,9.24h6.98l-9.23-9.23h0c-.45-.45-.14-1.23.5-1.24ZM78.5,136.06c0,.96-.78,1.74-1.74,1.74h-24.42c-.96,0-1.74-.78-1.74-1.74v-6.98c0-.96.78-1.74,1.74-1.74h24.42c.96,0,1.74.78,1.74,1.74v6.98Z"/><path class="c" d="M173.93,128.57l-5.95-5.95c-.33-.33-.78-.52-1.24-.52h-22.97c-.47,0-.91.19-1.24.52l-5.95,5.95c-.33.33-.52.78-.52,1.24v23.69h5.23v-10.47h23.69c.47,0,.91-.19,1.24-.52l1.74-1.74c.46-.45,1.23-.13,1.23.52h0s0,12.21,0,12.21h5.23v-23.69c0-.47-.19-.91-.52-1.24ZM145.52,137.81c-.47,0-.91.19-1.24.52l-1.74,1.74c-.46.45-1.23.13-1.23-.51v-10.47c0-.96.78-1.74,1.74-1.74h24.42c.96,0,1.74.78,1.74,1.74v8.72h-23.69Z"/><path class="c" d="M219.3,139.03l-2.97-2.97v-6.25c0-.47-.19-.91-.52-1.24l-5.95-5.95c-.33-.33-.78-.52-1.24-.52h-19.48c-.47,0-.91.19-1.24.52l-5.95,5.95c-.33.33-.52.78-.52,1.24v15.99c0,.47.19.91.52,1.24l5.95,5.95c.33.33.78.52,1.24.52h22.96c.47,0,.91-.19,1.24-.52l5.95-5.95c.33-.33.52-.78.52-1.24v-5.52c0-.47-.19-.91-.52-1.24ZM214.58,146.53c0,.96-.78,1.74-1.74,1.74h0s-24.43,0-24.43,0h0c-.96,0-1.74-.78-1.74-1.74v-4.38c0-.96.78-1.74,1.74-1.74h0s24.43,0,24.43,0h0c.96,0,1.74.78,1.74,1.75h0s0,4.38,0,4.38v-.02ZM211.09,133.44c0,.96-.77,1.73-1.73,1.74h-20.96c-.96,0-1.73-.78-1.73-1.74v-4.38c0-.96.78-1.74,1.74-1.74h0s20.94,0,20.94,0h0c.96,0,1.74.78,1.74,1.75h0s0,4.37,0,4.37h0Z"/><path class="c" d="M226.78,115.13v2.76c0,.47.19.91.52,1.24l1.23,1.23c.95.96.96,2.51,0,3.47l-1.24,1.24c-.33.33-.52.78-.52,1.24v27.18h5.22v-38.38h-5.22Z"/><polygon class="b" points="214.56 31.4 214.56 45.35 183.16 13.96 183.16 0 214.56 31.4"/><polygon class="b" points="214.56 45.35 214.56 59.31 183.16 90.71 183.16 76.75 214.56 45.35"/><polygon class="b" points="68.03 59.31 68.03 45.36 99.43 76.75 99.43 90.71 68.03 59.31"/><polygon class="b" points="68.03 45.36 68.03 31.4 99.43 0 99.43 13.96 68.03 45.36"/><polygon class="c" points="127.34 24.42 155.25 24.42 165.72 13.96 127.34 13.96 116.87 24.42 116.87 40.12 127.34 29.66 127.34 24.42"/><polygon class="c" points="155.2 66.24 127.3 66.24 116.83 76.71 155.2 76.71 165.67 66.24 165.67 66.24 165.67 50.54 155.2 61.01 155.2 66.24"/><polygon class="c" points="165.67 24.42 155.2 34.89 155.2 40.12 127.34 40.12 116.87 50.59 116.87 66.29 127.34 55.82 127.34 50.59 155.25 50.59 165.72 40.12 165.67 40.12 165.67 24.42"/></svg>