<?xml version="1.0" encoding="utf-8"?>
<!-- Generator: Adobe Illustrator 28.1.0, SVG Export Plug-In . SVG Version: 6.00 Build 0)  -->
<svg version="1.1" id="Layer_1" xmlns="http://www.w3.org/2000/svg" xmlns:xlink="http://www.w3.org/1999/xlink" x="0px" y="0px"
	 viewBox="0 0 396 153.5" style="enable-background:new 0 0 396 153.5;" xml:space="preserve">
<style type="text/css">
	.st0{fill:#04043A;}
	.st1{fill:#E59900;}
	.st2{fill:#00BDD1;}
	.st3{fill:#E55A15;}
	.st4{fill:#892A0C;}
	.st5{fill:#E2173A;}
	.st6{fill:#8E631C;}
	.st7{fill:#ED247F;}
	.st8{fill:#6B1CB7;}
	.st9{fill:#5F00F4;}
	.st10{fill:#F1C911;}
	.st11{fill:#5B93B2;}
	.st12{fill:#239696;}
</style>
<g>
	<g>
		<g>
			<path class="st0" d="M246.5,122.7c-0.3-0.3-0.8-0.5-1.2-0.5h-29.9c-0.5,0-0.9,0.2-1.2,0.5l-4.7,4.7h16.6c1,0,1.7,0.8,1.7,1.7
				v24.4h5.2v-24.4c0-1,0.8-1.7,1.7-1.7h16.6L246.5,122.7z"/>
		</g>
		<g>
			<path class="st0" d="M176.2,148.3c-1,0-1.7-0.8-1.7-1.7v-4.4c0-1,0.8-1.7,1.7-1.7l0,0h16.7c0.5,0,0.9-0.2,1.2-0.5l4.7-4.7h-22.7
				c-1,0-1.7-0.8-1.7-1.7v-4.4c0-1,0.8-1.7,1.7-1.7h29.7l-4.7-4.7c-0.3-0.3-0.8-0.5-1.2-0.5h-15l0,0l4.8-1.6
				c0.3-0.1,0.5-0.2,0.7-0.4l4.9-4.9l-4.8,1.6c-0.3,0.1-0.5,0.2-0.7,0.4l-3.2,3.2l0,0c-1.1,1.1-2.6,1.7-4.2,1.7l0,0h-5.5
				c-0.5,0-0.9,0.2-1.2,0.5l-5.9,5.9c-0.3,0.3-0.5,0.8-0.5,1.2v16c0,0.5,0.2,0.9,0.5,1.2l5.9,5.9c0.3,0.3,0.8,0.5,1.2,0.5h23
				c0.5,0,0.9-0.2,1.2-0.5l4.7-4.7L176.2,148.3L176.2,148.3z"/>
		</g>
		<g>
			<path class="st0" d="M139.6,148.3c-1,0-1.7-0.8-1.7-1.7v-24.4h-5.2v23.7c0,0.5,0.2,0.9,0.5,1.2l5.9,5.9c0.3,0.3,0.8,0.5,1.2,0.5
				l19.5,0c0.5,0,0.9-0.2,1.2-0.5l4.7-4.7H139.6z"/>
		</g>
		<g>
			<path class="st0" d="M37.9,128.6l-5.9-5.9c-0.3-0.3-0.8-0.5-1.2-0.5h-23c-0.5,0-0.9,0.2-1.2,0.5l-5.9,5.9
				c-0.3,0.3-0.5,0.8-0.5,1.2v16c0,0.5,0.2,0.9,0.5,1.2l5.9,5.9c0.3,0.3,0.8,0.5,1.2,0.5h23c0.5,0,0.9-0.2,1.2-0.5l5.9-5.9
				c0.3-0.3,0.5-0.8,0.5-1.2v-16C38.4,129.4,38.2,128.9,37.9,128.6z M31.4,127.4c1,0,1.7,0.8,1.7,1.7v17.4c0,1-0.8,1.7-1.7,1.7H7
				c-1,0-1.7-0.8-1.7-1.7v-17.4c0-1,0.8-1.7,1.7-1.7H31.4z"/>
		</g>
		<g>
			<path class="st0" d="M395.5,128.6l-5.9-5.9c-0.3-0.3-0.8-0.5-1.2-0.5h-23c-0.5,0-0.9,0.2-1.2,0.5l-5.9,5.9
				c-0.3,0.3-0.5,0.8-0.5,1.2v16c0,0.5,0.2,0.9,0.5,1.2l5.9,5.9c0.3,0.3,0.8,0.5,1.2,0.5h23c0.5,0,0.9-0.2,1.2-0.5l5.9-5.9
				c0.3-0.3,0.5-0.8,0.5-1.2v-16C396,129.4,395.8,128.9,395.5,128.6z M389,127.4c1,0,1.7,0.8,1.7,1.7v17.4c0,1-0.8,1.7-1.7,1.7
				h-24.4c-1,0-1.7-0.8-1.7-1.7v-17.4c0-1,0.8-1.7,1.7-1.7H389z"/>
		</g>
		<g>
			<g>
				<polygon class="st0" points="284.3,144.8 283.8,144.3 283.8,144.3 				"/>
				<path class="st0" d="M284.3,143.1h1c0.5,0,0.9-0.2,1.2-0.5l5.9-5.9c0.3-0.3,0.5-0.8,0.5-1.2v-5.5c0-0.5-0.2-0.9-0.5-1.2
					l-5.9-5.9c-0.3-0.3-0.8-0.5-1.2-0.5h-23c-0.5,0-0.9,0.2-1.2,0.5l-5.9,5.9c-0.3,0.3-0.5,0.8-0.5,1.2v23.7h5.2v-8.7
					c0-1,0.8-1.7,1.7-1.7l12.2,0c1.1,0,2.2,0.4,2.9,1.2l9.2,9.2h7l-9.2-9.2l0,0C283.4,143.9,283.7,143.1,284.3,143.1z M287.8,136.1
					c0,1-0.8,1.7-1.7,1.7h-24.4c-1,0-1.7-0.8-1.7-1.7v-7c0-1,0.8-1.7,1.7-1.7h24.4c1,0,1.7,0.8,1.7,1.7V136.1z"/>
			</g>
		</g>
		<g>
			<path class="st0" d="M350.6,132.6v-2.8c0-0.5-0.2-0.9-0.5-1.2l-6-6c-0.3-0.3-0.8-0.5-1.2-0.5h-23c-0.5,0-0.9,0.2-1.2,0.5l-6,6
				c-0.3,0.3-0.5,0.8-0.5,1.2v16c0,0.5,0.2,0.9,0.5,1.2l6,6c0.3,0.3,0.8,0.5,1.2,0.5h23c0.5,0,0.9-0.2,1.2-0.5l6-6
				c0.3-0.3,0.5-0.8,0.5-1.2v-2.8l-5.2,0l0,3.5c0,1-0.8,1.7-1.7,1.7h-24.4c-1,0-1.7-0.8-1.7-1.7v-17.4c0-0.9,0.8-1.7,1.7-1.7h24.5
				c0.9,0,1.7,0.8,1.7,1.7v3.5L350.6,132.6z"/>
		</g>
		<g>
			<path class="st0" d="M99.4,148.3c-1,0-1.7-0.8-1.7-1.7v-4.4c0-1,0.8-1.7,1.7-1.7l0,0h16.7c0.5,0,0.9-0.2,1.2-0.5l4.7-4.7H99.4
				c-1,0-1.7-0.8-1.7-1.7v-4.4c0-1,0.8-1.7,1.7-1.7h29.7l-4.7-4.7c-0.3-0.3-0.8-0.5-1.2-0.5h-23c-0.5,0-0.9,0.2-1.2,0.5l-5.9,5.9
				c-0.3,0.3-0.5,0.8-0.5,1.2v16c0,0.5,0.2,0.9,0.5,1.2l5.9,5.9c0.3,0.3,0.8,0.5,1.2,0.5h23c0.5,0,0.9-0.2,1.2-0.5l4.7-4.7
				L99.4,148.3L99.4,148.3z"/>
		</g>
		<g>
			<path class="st0" d="M300,115.2v2.8c0,0.5,0.2,0.9,0.5,1.2l1.2,1.2c1,1,1,2.5,0,3.5l-1.2,1.2c-0.3,0.3-0.5,0.8-0.5,1.2v27.2h5.2
				v-38.4H300z"/>
		</g>
		<g>
			<path class="st0" d="M50.6,136.1v-7c0-1,0.8-1.7,1.7-1.7H82l-4.7-4.7c-0.3-0.3-0.8-0.5-1.2-0.5h-23c-0.5,0-0.9,0.2-1.2,0.5
				l-5.9,5.9c-0.3,0.3-0.5,0.8-0.5,1.2v23.7h5.2v-8.7c0-1,0.8-1.7,1.7-1.7l16.7,0c0.5,0,0.9-0.2,1.2-0.5l4.7-4.7H52.3
				C51.4,137.8,50.6,137.1,50.6,136.1z"/>
		</g>
	</g>
	<g>
		<polygon class="st0" points="189.3,40.8 215.4,14.6 201.5,14.6 164.8,51.2 206.7,51.2 180.5,77.4 194.5,77.4 231.1,40.8 		"/>
		<g>
			<g>
				<polygon class="st1" points="271.3,31.4 271.3,45.4 239.9,14 239.9,0 				"/>
				<polygon class="st1" points="271.3,45.4 271.3,59.3 239.9,90.7 239.9,76.8 				"/>
			</g>
			<g>
				<polygon class="st1" points="124.7,59.3 124.7,45.4 156.1,76.8 156.1,90.7 				"/>
				<polygon class="st1" points="124.7,45.4 124.7,31.4 156.1,0 156.1,14 				"/>
			</g>
		</g>
	</g>
</g>
</svg>
