<?xml version="1.0" encoding="utf-8"?>
<!-- Generator: Adobe Illustrator 28.1.0, SVG Export Plug-In . SVG Version: 6.00 Build 0)  -->
<svg version="1.1" id="Layer_1" xmlns="http://www.w3.org/2000/svg" xmlns:xlink="http://www.w3.org/1999/xlink" x="0px" y="0px"
	 viewBox="0 0 298.3 198.9" style="enable-background:new 0 0 298.3 198.9;" xml:space="preserve">
<style type="text/css">
	.st0{fill:#04043A;}
	.st1{fill:#E59900;}
	.st2{fill:#00BDD1;}
	.st3{fill:#E55A15;}
	.st4{fill:#892A0C;}
	.st5{fill:#E2173A;}
	.st6{fill:#8E631C;}
	.st7{fill:#ED247F;}
	.st8{fill:#6B1CB7;}
	.st9{fill:#5F00F4;}
	.st10{fill:#F1C911;}
	.st11{fill:#5B93B2;}
	.st12{fill:#239696;}
</style>
<g>
	<g>
		<g>
			<g>
				<polygon class="st7" points="222.4,31.4 222.4,45.4 191,14 191,0 				"/>
				<polygon class="st7" points="222.4,45.4 222.4,59.3 191,90.7 191,76.8 				"/>
			</g>
			<g>
				<polygon class="st7" points="75.9,59.3 75.9,45.4 107.3,76.8 107.3,90.7 				"/>
				<polygon class="st7" points="75.9,45.4 75.9,31.4 107.3,0 107.3,14 				"/>
			</g>
		</g>
		<path class="st0" d="M180.6,24.4L180.6,24.4L170.1,14h-41.9l-10.5,10.5l0,0l24.4,20.9l-24.4,20.9l10.5,10.5h41.9l10.5-10.5
			l-24.4-20.9L180.6,24.4z M131.7,24.4h34.9l-17.4,15L131.7,24.4z M166.6,66.3h-34.9l17.4-15L166.6,66.3z"/>
	</g>
	<g>
		<g>
			<g>
				<path class="st0" d="M247.7,122.1v24.4l0,0c0,1-0.8,1.7-1.7,1.7l0,0h-21l0,0c-1,0-1.7-0.8-1.7-1.7l0,0.1v-7h-5.2v6.2
					c0,0.5,0.2,0.9,0.5,1.2l5.9,5.9c0.3,0.3,0.8,0.5,1.2,0.5l19.5,0c0.5,0,0.9-0.2,1.2-0.5l5.9-5.9c0.3-0.3,0.5-0.8,0.5-1.2v-23.7
					L247.7,122.1z"/>
			</g>
			<g>
				<path class="st0" d="M52.3,148.3c-1,0-1.7-0.8-1.7-1.7v-24.4h-5.2v23.7c0,0.5,0.2,0.9,0.5,1.2l5.9,5.9c0.3,0.3,0.8,0.5,1.2,0.5
					l19.5,0c0.5,0,0.9-0.2,1.2-0.5l4.7-4.7H52.3z"/>
			</g>
			<g>
				<path class="st0" d="M165.7,122.1l0,26.2c0,1.3-1.5,1.9-2.5,1l-26.7-26.7c-0.3-0.3-0.8-0.5-1.2-0.5h-3.8c-0.5,0-0.9,0.2-1.2,0.5
					l-2.5,2.5c-0.3,0.3-0.5,0.8-0.5,1.2v27.2h5.2v-23.7c0-1.3,1.6-1.9,2.5-1l24.7,24.7H171v-31.4H165.7z"/>
			</g>
			<g>
				<path class="st0" d="M37.9,128.6l-5.9-5.9c-0.3-0.3-0.8-0.5-1.2-0.5h-23c-0.5,0-0.9,0.2-1.2,0.5l-5.9,5.9
					c-0.3,0.3-0.5,0.8-0.5,1.2v23.7h5.2v-7c0-1,0.8-1.7,1.7-1.7l23.7,0c0.5,0,0.9-0.2,1.2-0.5l5.9-5.9c0.3-0.3,0.5-0.8,0.5-1.2v-7.3
					C38.4,129.3,38.2,128.9,37.9,128.6z M31.5,139.6H7c-1,0-1.7-0.8-1.7-1.7v-8.7c0-1,0.8-1.7,1.7-1.7h24.4c1,0,1.7,0.8,1.7,1.7v8.7
					C33.1,138.8,32.4,139.5,31.5,139.6z"/>
			</g>
			<g>
				<path class="st0" d="M119.9,128.6l-5.9-5.9c-0.3-0.3-0.8-0.5-1.2-0.5h-23c-0.5,0-0.9,0.2-1.2,0.5l-5.9,5.9
					c-0.3,0.3-0.5,0.8-0.5,1.2v23.7h5.2V143h23.7c0.5,0,0.9-0.2,1.2-0.5l1.7-1.7c0.5-0.4,1.2-0.1,1.2,0.5l0,0v12.2h5.2v-23.7
					C120.4,129.3,120.2,128.9,119.9,128.6z M91.4,137.8c-0.5,0-0.9,0.2-1.2,0.5l-1.7,1.7c-0.5,0.5-1.2,0.1-1.2-0.5v-10.5
					c0-1,0.8-1.7,1.7-1.7h24.4c1,0,1.7,0.8,1.7,1.7v8.7H91.4z"/>
			</g>
			<g>
				<path class="st0" d="M297.8,128.6l-5.9-5.9c-0.3-0.3-0.8-0.5-1.2-0.5h-23c-0.5,0-0.9,0.2-1.2,0.5l-5.9,5.9
					c-0.3,0.3-0.5,0.8-0.5,1.2v23.7h5.2V143h23.7c0.5,0,0.9-0.2,1.2-0.5l1.7-1.7c0.5-0.4,1.2-0.1,1.2,0.5l0,0v12.2h5.2v-23.7
					C298.3,129.3,298.1,128.9,297.8,128.6z M269.4,137.8c-0.5,0-0.9,0.2-1.2,0.5l-1.7,1.7c-0.5,0.5-1.2,0.1-1.2-0.5v-10.5
					c0-1,0.8-1.7,1.7-1.7h24.4c1,0,1.7,0.8,1.7,1.7v8.7H269.4z"/>
			</g>
			<g>
				<path class="st0" d="M184.9,148.3c-1,0-1.7-0.8-1.7-1.7v-4.4c0-1,0.8-1.7,1.7-1.7l0,0h16.7c0.5,0,0.9-0.2,1.2-0.5l4.7-4.7h-22.7
					c-1,0-1.7-0.8-1.7-1.7v-4.4c0-1,0.8-1.7,1.7-1.7h29.7l-4.7-4.7c-0.3-0.3-0.8-0.5-1.2-0.5h-23c-0.5,0-0.9,0.2-1.2,0.5l-5.9,5.9
					c-0.3,0.3-0.5,0.8-0.5,1.2v16c0,0.5,0.2,0.9,0.5,1.2l5.9,5.9c0.3,0.3,0.8,0.5,1.2,0.5h23c0.5,0,0.9-0.2,1.2-0.5l4.7-4.7
					L184.9,148.3L184.9,148.3z"/>
			</g>
		</g>
		<g>
			<g>
				<path class="st0" d="M215.1,168c-0.3-0.3-0.8-0.5-1.2-0.5h-29.9c-0.5,0-0.9,0.2-1.2,0.5l-4.7,4.7h16.6c1,0,1.7,0.8,1.7,1.7v24.4
					h5.2v-24.4c0-1,0.8-1.7,1.7-1.7h16.6L215.1,168z"/>
			</g>
			<g>
				<path class="st0" d="M79.7,170.4l-2.5-2.5c-0.3-0.3-0.8-0.5-1.2-0.5h-2.5c-0.7,0-1.3,0.4-1.6,1L60,195.4v0
					c-0.6,1.3-2.5,1.3-3.1,0h0v0l-11.9-26.9c-0.3-0.6-0.9-1-1.6-1h-2.5c-0.5,0-0.9,0.2-1.2,0.5l-2.5,2.5c-0.3,0.3-0.5,0.8-0.5,1.2
					v27.2h5.2v-22.6c0-0.2,0.2-0.2,0.3-0.1l10.2,22.6h12.2l10.2-22.6c0.1-0.1,0.3-0.1,0.3,0.1v22.6h5.2v-27.2
					C80.2,171.2,80.1,170.8,79.7,170.4z"/>
			</g>
			<g>
				<path class="st0" d="M169.2,167.5l0,26.2c0,1.3-1.5,1.9-2.5,1L140.1,168c-0.3-0.3-0.8-0.5-1.2-0.5h-3.8c-0.5,0-0.9,0.2-1.2,0.5
					l-2.5,2.5c-0.3,0.3-0.5,0.8-0.5,1.2v27.2h5.2v-23.7c0-1.3,1.6-1.9,2.5-1l24.7,24.7h11.2v-31.4H169.2z"/>
			</g>
			<g>
				<path class="st0" d="M261.2,173.9l-5.9-5.9c-0.3-0.3-0.8-0.5-1.2-0.5h-23c-0.5,0-0.9,0.2-1.2,0.5l-5.9,5.9
					c-0.3,0.3-0.5,0.8-0.5,1.2v16c0,0.5,0.2,0.9,0.5,1.2l5.9,5.9c0.3,0.3,0.8,0.5,1.2,0.5h23c0.5,0,0.9-0.2,1.2-0.5l5.9-5.9
					c0.3-0.3,0.5-0.8,0.5-1.2v-16C261.7,174.7,261.5,174.3,261.2,173.9z M254.7,172.7c1,0,1.7,0.8,1.7,1.7v17.4c0,1-0.8,1.7-1.7,1.7
					h-24.4c-1,0-1.7-0.8-1.7-1.7v-17.4c0-1,0.8-1.7,1.7-1.7H254.7z"/>
			</g>
			<g>
				<path class="st0" d="M94.2,193.6c-1,0-1.7-0.8-1.7-1.7v-4.4c0-1,0.8-1.7,1.7-1.7l0,0h16.7c0.5,0,0.9-0.2,1.2-0.5l4.7-4.7H94.2
					c-1,0-1.7-0.8-1.7-1.7v-4.4c0-1,0.8-1.7,1.7-1.7h29.7l-4.7-4.7c-0.3-0.3-0.8-0.5-1.2-0.5h-23c-0.5,0-0.9,0.2-1.2,0.5l-5.9,5.9
					c-0.3,0.3-0.5,0.8-0.5,1.2v16c0,0.5,0.2,0.9,0.5,1.2l5.9,5.9c0.3,0.3,0.8,0.5,1.2,0.5h23c0.5,0,0.9-0.2,1.2-0.5l4.7-4.7
					L94.2,193.6L94.2,193.6z"/>
			</g>
		</g>
	</g>
</g>
</svg>
