<?xml version="1.0" encoding="utf-8"?>
<!-- Generator: Adobe Illustrator 28.1.0, SVG Export Plug-In . SVG Version: 6.00 Build 0)  -->
<svg version="1.1" id="arte" xmlns="http://www.w3.org/2000/svg" xmlns:xlink="http://www.w3.org/1999/xlink" x="0px" y="0px"
	 viewBox="0 0 495.4 45.4" style="enable-background:new 0 0 495.4 45.4;" xml:space="preserve">
<style type="text/css">
	.st0{fill:#04043A;}
	.st1{fill:#005FE8;}
</style>
<g>
	<g>
		<g>
			<path class="st0" d="M392.5,17.4v-2.8c0-0.5-0.2-0.9-0.5-1.2L386,7.5c-0.3-0.3-0.8-0.5-1.2-0.5h-23c-0.5,0-0.9,0.2-1.2,0.5
				l-5.9,5.9c-0.3,0.3-0.5,0.8-0.5,1.2v2c0,0.5,0.2,0.9,0.5,1.2l6.8,6.8c0.3,0.3,0.8,0.5,1.2,0.5l22.8,0c1,0,1.7,0.8,1.7,1.7v4.4
				c0,0.9-0.8,1.7-1.7,1.7l-24.5,0c-1,0-1.7-0.8-1.7-1.7v-3.5l-5.2,0v2.8c0,0.5,0.2,0.9,0.5,1.2l5.9,5.9c0.3,0.3,0.8,0.5,1.2,0.5h23
				c0.5,0,0.9-0.2,1.2-0.5l5.9-5.9c0.3-0.3,0.5-0.8,0.5-1.2v-2c0-0.5-0.2-0.9-0.5-1.2l-6.8-6.8c-0.3-0.3-0.8-0.5-1.2-0.5l-22.8,0
				c-1,0-1.7-0.8-1.7-1.7V14c0-1,0.8-1.7,1.7-1.7h24.4c1,0,1.7,0.8,1.7,1.7v3.5L392.5,17.4z"/>
		</g>
		<g>
			<path class="st0" d="M216.3,17.4v-2.8c0-0.5-0.2-0.9-0.5-1.2l-6-6c-0.3-0.3-0.8-0.5-1.2-0.5h-23c-0.5,0-0.9,0.2-1.2,0.5l-6,6
				c-0.3,0.3-0.5,0.8-0.5,1.2v16c0,0.5,0.2,0.9,0.5,1.2l6,6c0.3,0.3,0.8,0.5,1.2,0.5h18.5l0,0c0.6,0,1,0.8,0.5,1.2l-0.6,0.6
				c-1.1,1.1-2.6,1.7-4.2,1.7h-7.3c-0.5,0-0.9,0.2-1.2,0.5l-3,3h13.2c0.5,0,0.9-0.2,1.2-0.5l2.5-2.5c0.3-0.3,0.5-0.8,0.5-1.2v-2.8
				h2.8c0.5,0,0.9-0.2,1.2-0.5l6-6c0.3-0.3,0.5-0.8,0.5-1.2v-2.8l-5.2,0l0,3.5c0,1-0.8,1.7-1.7,1.7h-24.4c-1,0-1.7-0.8-1.7-1.7V14
				c0-0.9,0.8-1.7,1.7-1.7h24.5c0.9,0,1.7,0.8,1.7,1.7v3.5L216.3,17.4z M202.4,41.9L202.4,41.9L202.4,41.9L202.4,41.9z"/>
		</g>
		<g>
			<path class="st0" d="M125.1,13.4l-5.9-5.9c-0.3-0.3-0.8-0.5-1.2-0.5h-23c-0.5,0-0.9,0.2-1.2,0.5l-5.9,5.9
				c-0.3,0.3-0.5,0.8-0.5,1.2v16c0,0.5,0.2,0.9,0.5,1.2l5.9,5.9c0.3,0.3,0.8,0.5,1.2,0.5h23c0.5,0,0.9-0.2,1.2-0.5l5.9-5.9
				c0.3-0.3,0.5-0.8,0.5-1.2v-16C125.6,14.2,125.4,13.8,125.1,13.4z M118.6,12.2c1,0,1.7,0.8,1.7,1.7v17.4c0,1-0.8,1.7-1.7,1.7H94.2
				c-1,0-1.7-0.8-1.7-1.7V14c0-1,0.8-1.7,1.7-1.7H118.6z"/>
		</g>
		<g>
			<path class="st0" d="M494.9,13.4l-5.9-5.9c-0.3-0.3-0.8-0.5-1.2-0.5h-23c-0.5,0-0.9,0.2-1.2,0.5l-5.9,5.9
				c-0.3,0.3-0.5,0.8-0.5,1.2v16c0,0.5,0.2,0.9,0.5,1.2l5.9,5.9c0.3,0.3,0.8,0.5,1.2,0.5h23c0.5,0,0.9-0.2,1.2-0.5l5.9-5.9
				c0.3-0.3,0.5-0.8,0.5-1.2v-16C495.4,14.2,495.2,13.8,494.9,13.4z M488.4,12.2c1,0,1.7,0.8,1.7,1.7v17.4c0,1-0.8,1.7-1.7,1.7H464
				c-1,0-1.7-0.8-1.7-1.7V14c0-1,0.8-1.7,1.7-1.7H488.4z"/>
		</g>
		<g>
			<g>
				<polygon class="st0" points="162.2,29.7 161.7,29.1 161.7,29.1 				"/>
				<path class="st0" d="M162.2,27.9h1c0.5,0,0.9-0.2,1.2-0.5l5.9-5.9c0.3-0.3,0.5-0.8,0.5-1.2v-5.5c0-0.5-0.2-0.9-0.5-1.2l-5.9-5.9
					c-0.3-0.3-0.8-0.5-1.2-0.5h-23c-0.5,0-0.9,0.2-1.2,0.5l-5.9,5.9c-0.3,0.3-0.5,0.8-0.5,1.2v23.7h5.2v-8.7c0-1,0.8-1.7,1.7-1.7
					l12.2,0c1.1,0,2.2,0.4,2.9,1.2l9.2,9.2h7l-9.2-9.2l0,0C161.3,28.7,161.6,27.9,162.2,27.9z M165.7,20.9c0,1-0.8,1.7-1.7,1.7
					h-24.4c-1,0-1.7-0.8-1.7-1.7v-7c0-1,0.8-1.7,1.7-1.7H164c1,0,1.7,0.8,1.7,1.7V20.9z"/>
			</g>
		</g>
		<g>
			<path class="st0" d="M261.2,13.4l-5.9-5.9C254.9,7.2,254.4,7,254,7h-23c-0.5,0-0.9,0.2-1.2,0.5l-5.9,5.9
				c-0.3,0.3-0.5,0.8-0.5,1.2v23.7h5.2V27.9h23.7c0.5,0,0.9-0.2,1.2-0.5l1.7-1.7c0.5-0.4,1.2-0.1,1.2,0.5l0,0v12.2h5.2V14.7
				C261.7,14.2,261.5,13.8,261.2,13.4z M232.7,22.7c-0.5,0-0.9,0.2-1.2,0.5l-1.7,1.7c-0.5,0.5-1.2,0.1-1.2-0.5V14
				c0-1,0.8-1.7,1.7-1.7h24.4c1,0,1.7,0.8,1.7,1.7v8.7H232.7z"/>
		</g>
		<g>
			<path class="st0" d="M346.6,13.4l-5.9-5.9c-0.3-0.3-0.8-0.5-1.2-0.5h-23c-0.5,0-0.9,0.2-1.2,0.5l-5.9,5.9
				c-0.3,0.3-0.5,0.8-0.5,1.2v23.7h5.2V27.9h23.7c0.5,0,0.9-0.2,1.2-0.5l1.7-1.7c0.5-0.4,1.2-0.1,1.2,0.5l0,0v12.2h5.2V14.7
				C347.1,14.2,347,13.8,346.6,13.4z M318.2,22.7c-0.5,0-0.9,0.2-1.2,0.5l-1.7,1.7c-0.5,0.5-1.2,0.1-1.2-0.5V14c0-1,0.8-1.7,1.7-1.7
				h24.4c1,0,1.7,0.8,1.7,1.7v8.7H318.2z"/>
		</g>
		<g>
			<path class="st0" d="M437.9,17.4v-2.8c0-0.5-0.2-0.9-0.5-1.2l-6-6c-0.3-0.3-0.8-0.5-1.2-0.5h-23c-0.5,0-0.9,0.2-1.2,0.5l-6,6
				c-0.3,0.3-0.5,0.8-0.5,1.2v16c0,0.5,0.2,0.9,0.5,1.2l6,6c0.3,0.3,0.8,0.5,1.2,0.5h23c0.5,0,0.9-0.2,1.2-0.5l6-6
				c0.3-0.3,0.5-0.8,0.5-1.2v-2.8l-5.2,0l0,3.5c0,1-0.8,1.7-1.7,1.7h-24.4c-1,0-1.7-0.8-1.7-1.7V14c0-0.9,0.8-1.7,1.7-1.7h24.5
				c0.9,0,1.7,0.8,1.7,1.7v3.5L437.9,17.4z"/>
		</g>
		<g>
			<path class="st0" d="M444.8,0v2.8c0,0.5,0.2,0.9,0.5,1.2l1.2,1.2c1,1,1,2.5,0,3.5l-1.2,1.2c-0.3,0.3-0.5,0.8-0.5,1.2v27.2h5.2V0
				H444.8z"/>
		</g>
		<g>
			<path class="st0" d="M273.9,20.9v-7c0-1,0.8-1.7,1.7-1.7h29.7l-4.7-4.7c-0.3-0.3-0.8-0.5-1.2-0.5h-23c-0.5,0-0.9,0.2-1.2,0.5
				l-5.9,5.9c-0.3,0.3-0.5,0.8-0.5,1.2v23.7h5.2v-8.7c0-1,0.8-1.7,1.7-1.7l16.7,0c0.5,0,0.9-0.2,1.2-0.5l4.7-4.7h-22.7
				C274.7,22.7,273.9,21.9,273.9,20.9z"/>
		</g>
	</g>
	<g>
		<g>
			<g>
				<polygon class="st1" points="73.3,15.7 73.3,22.7 57.6,7 57.6,0 				"/>
				<polygon class="st1" points="73.3,22.7 73.3,29.7 57.6,45.4 57.6,38.4 				"/>
			</g>
			<g>
				<polygon class="st1" points="0,29.7 0,22.7 15.7,38.4 15.7,45.4 				"/>
				<polygon class="st1" points="0,22.7 0,15.7 15.7,0 15.7,7 				"/>
			</g>
		</g>
		<rect x="34" class="st0" width="5.2" height="34.9"/>
		<rect x="23.6" y="5.2" class="st0" width="5.2" height="29.7"/>
		<rect x="44.5" y="5.2" class="st0" width="5.2" height="29.7"/>
		<rect x="34" y="27" transform="matrix(6.123234e-17 -1 1 6.123234e-17 -6.105 79.3703)" class="st0" width="5.2" height="31.4"/>
	</g>
</g>
</svg>
